<svg width="831" height="444" viewBox="0 0 831 444" fill="none" xmlns="http://www.w3.org/2000/svg">
<path d="M706.288 1.32259C702.975 2.3911 701.693 3.2459 702.762 3.67331C703.617 3.99386 703.082 4.1007 701.48 3.78015C699.77 3.35275 698.488 3.56646 698.488 4.20756C698.488 4.74182 696.885 5.59664 694.855 5.91719C692.825 6.34459 691.009 7.19936 690.795 7.84047C690.582 8.48157 687.59 9.3364 684.171 9.87065C680.645 10.2981 677.547 11.046 677.226 11.5803C676.372 12.7556 671.243 15.6406 665.26 18.4187C662.161 19.9146 659.918 21.838 659.063 23.8681C658.315 25.5778 656.819 27.2874 655.858 27.6079C653.187 28.5696 641.861 40.8575 641.861 42.7808C641.861 43.4219 641.327 43.9561 640.686 43.9561C640.045 43.9561 639.724 44.5972 640.045 45.452C640.365 46.3069 639.831 47.1617 638.656 47.4822C637.267 47.8028 636.946 48.6576 637.267 50.5809C637.694 52.7179 637.267 53.4659 635.237 54.107C633.207 54.7481 633.1 54.9618 634.703 55.3892C635.664 55.6029 636.519 56.5646 636.519 57.4194C636.519 58.5947 635.878 58.8084 634.169 58.2742C631.925 57.6331 631.925 57.6331 633.634 59.3427C637.053 62.7619 635.771 65.9674 631.284 65.4332C630.536 65.2195 630.215 65.7537 630.643 66.3949C631.07 67.036 632.032 67.3565 632.886 67.0359C636.199 65.7537 634.062 68.6387 630.643 70.0278C626.476 71.7374 626.049 72.9128 628.613 75.0498C629.574 75.7977 630.109 77.4005 629.788 78.8964C629.574 80.2855 630.215 82.2088 631.284 83.3842C633.207 85.4143 633.207 85.628 631.391 86.5897C629.788 87.5514 629.788 87.8719 631.177 88.8336C632.566 89.6884 632.566 89.9021 631.07 89.9021C628.613 89.9021 627.651 93.9624 630.002 94.4967C631.498 94.9241 631.498 95.0309 629.895 95.1378C627.544 95.2446 627.544 96.0994 629.574 100.908C631.711 106.143 631.604 107.319 629.04 106.464C626.903 105.823 626.903 105.93 629.254 108.28C630.856 109.99 632.139 110.524 632.993 109.883C633.848 109.242 635.558 110.204 638.015 112.555C640.152 114.478 643.143 117.256 644.746 118.645C646.99 120.568 647.203 120.996 645.601 120.461C644.425 119.927 643.037 119.5 642.396 119.286C637.267 117.79 636.412 117.256 636.946 115.974C637.588 114.264 636.626 114.05 634.489 115.439C633.527 116.081 633.421 116.615 634.275 117.042C634.916 117.47 635.451 118.645 635.451 119.607C635.451 121.209 635.237 121.209 634.382 119.82C633.421 118.431 633.207 118.431 632.352 119.82C630.963 121.851 632.566 124.629 635.13 124.629C636.412 124.629 636.946 125.27 636.733 126.552C636.412 128.262 640.152 132.536 642.075 132.642C642.502 132.642 644.105 133.818 645.601 135.421C647.097 136.917 648.699 137.878 649.233 137.558C649.661 137.237 650.622 138.199 651.263 139.588C652.011 141.191 653.4 142.259 654.682 142.259C655.858 142.259 657.781 143.221 658.956 144.396C660.131 145.571 663.23 146.854 665.901 147.281C668.572 147.602 671.029 148.35 671.35 148.777C671.67 149.311 673.487 149.739 675.517 149.739C677.547 149.739 679.47 150.273 679.897 150.914C680.218 151.555 681.714 151.876 683.103 151.555C684.492 151.341 685.667 151.555 685.667 152.089C685.667 152.624 686.094 152.837 686.522 152.517C687.056 152.196 688.765 152.73 690.475 153.585C692.077 154.44 693.68 154.868 693.894 154.654C694.214 154.44 695.924 154.654 697.74 155.188C703.83 157.005 710.241 158.073 709.6 157.111C709.279 156.577 709.6 156.15 710.134 156.15C710.775 156.15 711.309 156.684 711.309 157.325C711.309 157.966 711.95 158.287 712.805 157.966C713.553 157.646 714.621 157.752 715.156 158.287C716.331 159.355 738.554 155.936 746.14 153.478C749.88 152.303 751.696 155.188 751.375 161.599C750.948 169.613 754.474 208.614 755.863 211.178C756.611 212.46 757.038 220.795 757.145 231.8C757.252 247.935 757.572 250.927 759.602 256.376C762.273 263.428 762.38 270.267 760.03 277.212C758.854 280.738 758.213 288.218 757.786 302.749C757.465 314.076 756.824 325.081 756.29 327.111C754.687 333.309 753.085 348.161 752.337 363.761C751.91 371.882 751.162 378.72 750.627 379.041C749.025 380.003 749.773 383.208 751.91 384.597C754.474 386.2 754.581 387.803 752.337 390.26C750.734 392.077 750.734 392.397 752.337 394.962C753.619 396.992 753.833 398.167 752.978 399.663C751.589 402.441 751.589 407.25 753.085 407.25C753.619 407.25 753.94 407.677 753.512 408.211C753.192 408.746 753.405 409.494 753.94 409.921C754.474 410.242 754.901 413.447 754.794 417.08C754.687 421.461 755.008 423.812 755.97 424.132C756.611 424.346 757.252 423.812 757.252 422.957C757.252 421.461 761.525 419.003 764.196 419.003C765.051 419.003 766.44 420.499 767.402 422.209C768.363 424.025 769.752 425.414 770.607 425.414C772.103 425.414 773.919 429.154 773.492 431.505C773.278 432.146 774.133 433.321 775.201 434.176C776.27 434.924 777.445 436.42 777.872 437.489C778.3 438.557 779.048 439.091 779.689 438.771C780.223 438.45 780.757 438.664 780.757 439.305C780.757 440.053 781.612 440.267 782.787 439.839C784.283 439.412 785.031 439.839 785.565 441.442C786.206 443.579 788.236 444.434 788.236 442.617C788.236 442.083 789.946 440.374 792.189 438.771L796.036 435.779L797.959 438.023C800.096 440.694 801.057 441.015 801.057 438.878C801.057 437.061 805.438 435.779 808.216 436.741C809.818 437.382 809.925 437.168 808.857 435.993C806.934 434.069 807.147 432.36 809.071 433.962C810.673 435.245 813.237 434.497 812.276 432.894C811.207 431.184 813.878 426.269 815.481 426.91C816.55 427.338 817.618 426.59 818.366 424.773C819.114 423.277 820.182 422.316 821.037 422.636C822.96 423.384 824.776 419.644 823.174 418.042C822.319 417.187 822.212 416.546 823.067 416.011C824.883 414.836 825.631 410.242 824.242 407.891C822.319 404.365 822.212 401.907 824.029 402.548C826.272 403.403 826.165 397.313 824.029 395.069C822.319 393.466 821.785 387.482 823.388 388.444C824.67 389.299 825.952 376.049 826.165 357.564C826.379 348.695 826.807 338.438 827.234 334.591C828.089 325.616 828.623 317.815 829.371 302.001C829.798 294.949 830.225 287.683 830.439 285.974C831.187 280.952 831.187 208.827 830.439 200.493C829.05 184.038 824.456 135.848 823.494 127.834C822.319 117.149 821.571 105.716 820.716 84.5595C820.396 75.4772 819.968 67.036 819.755 65.8606C819.541 64.6852 819.007 59.0221 818.686 53.359C817.939 41.4985 816.229 36.3697 812.383 34.5532C810.887 33.9121 809.605 32.5231 809.605 31.4545C809.605 30.4929 808.643 28.5696 807.361 27.2874C805.438 25.2572 804.69 25.0435 802.553 26.0051C800.63 26.86 799.455 26.7531 797.531 25.4709C794.219 23.3339 791.869 24.6161 793.471 27.8216C794.219 29.2107 794.326 30.0655 793.685 30.0655C792.403 30.0655 788.236 25.7915 788.236 24.5092C788.236 24.0818 787.488 23.975 786.633 24.4024C785.672 24.7229 784.069 24.1887 783.001 23.227C781.078 21.4106 779.475 21.5174 770.607 24.0818C769.111 24.6161 766.013 22.9065 759.923 18.3119C754.474 14.2515 750.307 11.9008 748.491 11.9008C743.896 11.9008 740.157 9.97749 740.157 7.84047C740.157 6.2377 739.088 5.59663 735.776 5.06238C733.426 4.63497 730.968 4.74182 730.327 5.06238C729.579 5.48978 729.473 5.27608 729.9 4.63498C730.434 3.67332 729.579 3.4596 726.801 3.88701C724.558 4.10071 723.276 3.88701 723.596 3.35275C724.024 2.71165 723.276 2.28426 722.1 2.28426C720.818 2.28426 719.857 1.85684 719.857 1.32259C719.857 -0.387032 711.523 -0.493883 706.288 1.32259ZM730.755 66.288C732.785 67.3565 733.746 68.8524 733.746 70.6689C733.853 72.1648 733.853 74.7292 733.853 76.4388C733.96 80.4992 732.464 81.6746 723.596 84.5595C707.036 89.9021 697.42 88.4061 697.42 80.606C697.42 77.4005 698.274 75.9046 702.655 71.6305C705.54 68.8524 709.279 66.1812 710.882 65.8606C712.591 65.4332 714.514 65.0058 715.049 64.7921C717.72 63.8304 728.19 64.7921 730.755 66.288Z" fill="white"/>
<path d="M521.236 18.5256C520.06 20.3421 516.641 20.6626 515.145 19.0599C513.863 17.8845 507.453 18.2051 506.598 19.4873C505.743 20.9832 511.62 26.6463 513.436 26.0052C514.077 25.7915 514.718 26.5394 514.825 27.608C514.825 28.6765 515.039 30.5998 515.359 31.882C515.787 34.3396 514.291 35.1944 513.115 33.2711C511.299 30.2792 502.324 28.1422 489.931 27.7148C486.512 27.608 483.734 27.2874 483.734 26.9669C483.734 26.2189 475.079 26.6463 471.019 27.5011C469.096 27.9285 468.776 28.3559 469.737 28.8902C471.34 29.9587 467.921 32.6299 460.015 36.4766C457.13 37.8656 454.886 39.3616 454.886 39.8958C454.886 40.3232 454.352 40.7506 453.711 40.7506C449.758 40.7506 418.559 69.4936 418.559 73.0196C418.559 73.9813 418.132 75.0498 417.598 75.3704C417.17 75.6909 416.423 77.4005 416.102 79.217C415.247 82.9568 408.302 90.9706 401.678 95.4584C396.336 99.0913 394.52 102.831 396.229 106.143C396.977 107.533 396.977 108.601 396.336 109.028C394.413 110.311 392.81 120.462 393.451 126.338C393.879 129.544 394.306 134.78 394.413 138.092C394.733 144.824 395.481 146.747 397.725 145.785C398.793 145.465 399.328 145.892 399.328 147.388C399.328 148.67 399.862 149.952 400.61 150.38C401.251 150.807 401.465 150.7 401.144 150.059C400.717 149.418 401.144 148.35 401.999 147.602C403.388 146.426 403.495 146.533 403.067 147.815C402.533 149.098 403.388 149.632 406.166 150.166C410.333 150.914 411.615 154.013 407.875 154.013C406.059 154.013 405.845 154.44 406.379 156.898C406.807 158.5 407.127 160.531 407.127 161.279C407.127 162.027 407.768 162.454 408.623 162.133C409.691 161.706 409.905 162.24 409.371 164.484C408.516 168.01 407.875 168.865 407.875 166.621C407.875 165.66 407.127 164.698 406.272 164.27C403.922 163.416 404.242 164.164 408.944 171.109C412.256 176.024 413.858 177.413 415.675 177.306C417.064 177.199 419.628 178.161 421.444 179.443C423.261 180.725 425.291 181.794 426.038 181.794C426.786 181.794 427.107 182.542 426.68 183.397C426.359 184.358 426.679 185 427.534 185C428.282 185 430.312 186.389 432.022 188.098C434.159 190.235 435.547 190.876 436.402 190.235C437.791 188.953 442.065 191.197 442.065 193.12C442.065 193.868 442.92 194.189 444.202 193.868C445.484 193.548 447.3 194.082 448.475 195.15C449.544 196.112 450.933 196.646 451.467 196.326C452.108 196.005 452.322 196.539 452.001 197.822C451.574 199.531 452.001 199.959 454.245 199.959C456.702 199.959 456.916 199.745 455.954 197.929C454.245 194.509 454.672 193.548 458.091 193.548C461.297 193.548 466.639 195.471 466.639 196.753C466.639 197.181 465.036 197.287 463.22 197.074C461.297 196.753 460.228 196.967 460.762 197.501C463.754 199.852 465.143 203.698 464.075 206.69C463.327 208.827 463.327 210.216 464.288 211.712C467.921 217.696 464.288 225.817 455.1 232.014C452.108 234.044 449.33 236.609 449.01 237.57C448.582 238.639 447.728 239.494 447.086 239.494C446.339 239.494 444.309 242.699 442.706 246.653C440.996 250.713 438.112 256.91 436.402 260.65C434.693 264.39 433.624 268.023 433.945 268.878C434.265 269.732 434.159 270.48 433.731 270.48C432.663 270.48 430.953 275.289 428.71 284.798C427.427 290.034 427.107 294.201 427.534 299.223C428.175 305.955 428.068 306.489 425.077 309.908C422.085 313.435 421.658 315.358 424.008 315.358C425.291 315.358 430.312 320.594 430.312 321.876C430.312 322.303 429.778 323.051 429.137 323.479C428.282 323.906 428.389 324.44 429.351 325.081C430.526 325.829 430.312 326.47 428.175 328.287L425.504 330.424L427.962 329.783C430.419 329.035 430.419 329.142 428.816 331.706C427.107 334.164 427.107 334.377 429.244 334.912C431.167 335.446 431.381 335.873 430.419 337.69C428.816 340.575 428.923 341.002 431.487 341.002C433.411 341.002 433.624 341.216 432.342 342.712C431.274 344.101 431.274 344.528 432.342 345.276C433.304 345.81 433.411 346.238 432.556 346.772C431.701 347.306 431.915 348.054 432.983 349.23C434.265 350.405 435.013 350.512 436.082 349.657C437.043 348.802 437.791 348.802 438.219 349.443C438.646 349.978 438.432 350.725 437.791 351.153C437.257 351.473 436.723 352.756 436.723 353.931C436.723 356.175 435.013 356.709 434.265 354.679C434.052 353.931 433.945 354.038 433.945 354.893C434.052 355.854 435.013 356.389 436.616 356.175C438.325 356.068 439.18 356.602 439.608 358.098C439.928 359.274 441.103 360.235 442.172 360.235C443.347 360.235 444.202 360.663 444.202 361.197C444.202 361.731 444.843 362.372 445.591 362.693C446.232 362.907 445.804 362.907 444.522 362.693C441.531 362.265 441.21 364.509 444.202 365.257C445.377 365.578 446.018 366.219 445.698 366.753C445.377 367.287 445.698 367.715 446.339 367.715C446.98 367.715 447.407 368.57 447.193 369.638C446.98 370.813 447.621 371.561 449.01 371.775C450.185 371.882 452.001 373.485 452.963 375.194C454.245 377.438 455.634 378.4 457.557 378.4C459.053 378.4 460.228 378.934 460.228 379.575C460.228 380.216 460.976 380.537 461.831 380.11C462.686 379.789 463.433 379.896 463.433 380.43C463.433 380.964 464.502 381.605 465.677 381.926C467.387 382.353 467.814 383.101 467.387 384.704C466.959 386.307 467.387 386.734 469.203 386.734C470.378 386.627 472.088 386.093 472.836 385.559C473.69 384.811 474.118 385.025 474.118 386.307C474.118 387.482 475.079 388.017 477.323 388.017C479.46 388.017 480.528 388.551 480.528 389.619C480.528 391.756 483.199 391.649 485.443 389.406C487.153 387.696 487.153 387.696 486.405 390.154C485.657 392.504 485.764 392.611 487.259 391.436C488.328 390.474 490.251 390.26 492.708 390.795C495.059 391.222 496.555 391.008 496.555 390.367C496.555 388.764 502.111 387.696 502.965 389.085C503.393 389.833 504.675 390.047 505.85 389.726C507.453 389.192 507.88 388.337 507.453 386.414C507.132 384.277 507.346 383.849 508.735 384.384C509.696 384.704 510.444 385.559 510.444 386.307C510.444 386.948 510.872 386.841 511.406 385.88C512.047 385.025 512.154 383.956 511.833 383.422C511.406 382.781 512.368 382.674 514.077 383.101C516.107 383.636 516.855 383.422 516.855 382.14C516.855 381.285 517.282 380.537 517.923 380.537C518.458 380.537 518.671 381.285 518.351 382.14C517.389 384.49 521.77 384.277 523.266 381.819C524.227 380.216 524.655 380.323 527.539 383.636C529.249 385.666 530.424 387.589 529.997 387.91C529.676 388.23 529.142 387.91 528.928 387.162C528.608 386.521 527.112 385.88 525.616 385.88C523.159 385.986 522.945 386.093 524.655 387.055C526.898 388.337 527.005 390.154 524.868 390.154C524.013 390.154 523.266 390.581 523.266 391.222C523.266 393.039 526.257 392.397 527.432 390.367C528.073 389.406 528.608 389.085 528.608 389.726C528.608 391.115 533.95 390.367 533.95 388.978C533.95 388.444 533.416 388.017 532.775 388.017C532.134 388.017 531.813 387.482 532.027 386.734C532.347 385.986 531.279 384.384 529.783 382.995C528.287 381.712 527.646 380.537 528.394 380.537C529.035 380.537 529.676 379.789 529.676 378.827C529.676 377.973 530.21 377.545 530.745 377.866C531.386 378.186 531.813 379.575 531.813 380.751C531.813 382.033 532.561 383.849 533.522 384.918C535.232 386.841 535.339 386.734 537.048 384.811C538.971 382.567 545.703 380.751 545.703 382.567C545.703 383.208 546.344 383.422 547.198 383.101C548.053 382.781 549.015 383.101 549.442 383.742C549.976 384.597 550.617 384.597 551.686 383.636C552.754 382.781 553.182 382.781 553.182 383.636C553.182 385.879 555.318 384.811 555.96 382.247C556.28 380.858 557.455 379.468 558.524 379.148C560.981 378.507 566.323 370.172 565.575 368.142C565.255 367.287 565.682 366.646 566.644 366.646C567.819 366.646 568.033 366.005 567.605 364.616C567.178 363.12 567.605 362.372 568.994 361.945C572.627 360.77 574.871 354.145 577.114 338.331C579.144 323.479 580.106 310.122 578.931 312.045C578.183 313.221 577.649 313.007 576.58 310.977C575.939 309.588 574.657 307.771 573.802 307.023C572.948 306.169 572.093 304.138 571.665 302.536C571.345 300.933 569.956 298.903 568.567 298.155C566.323 296.979 566.11 296.231 566.644 293.24C567.071 290.889 566.857 289.714 566.11 289.714C565.469 289.714 564.4 288.538 563.652 287.042C563.011 285.653 562.05 284.692 561.622 285.012C560.126 285.867 555.425 281.913 555.318 279.776C555.318 278.815 555.853 277.96 556.387 277.96C557.028 277.96 557.455 278.708 557.455 279.563C557.455 280.418 557.99 281.165 558.524 281.165C560.126 281.165 559.806 279.456 557.99 277.96C557.135 277.212 556.387 275.93 556.387 275.075C556.387 272.724 551.258 268.45 549.015 269.091C547.626 269.412 546.771 268.984 546.45 267.595C546.023 265.886 545.916 265.886 545.809 267.489C545.809 268.557 544.955 269.412 544.1 269.412C542.711 269.412 542.711 269.091 543.779 267.275C544.527 266.1 545.596 265.138 546.023 265.138C546.557 265.138 546.771 264.497 546.45 263.749C546.237 263.108 546.45 261.612 546.985 260.543C547.946 258.62 549.228 246.866 549.335 239.28C549.335 236.715 548.267 233.937 546.344 231.052C543.566 227.099 543.459 226.351 544.634 223.573C545.275 221.863 550.297 216.093 555.639 210.964C561.088 205.729 566.644 200.066 568.14 198.249C571.665 194.082 575.619 188.419 575.619 187.778C575.619 187.457 576.26 186.282 577.114 185.32C580.427 181.26 586.303 173.246 586.303 172.712C586.303 172.498 588.012 169.613 590.042 166.407C592.072 163.202 593.782 159.89 593.782 159.142C593.782 158.394 594.53 156.791 595.385 155.722C596.346 154.44 596.987 151.235 596.987 147.922C596.987 144.824 597.949 138.519 599.231 133.925C600.94 127.514 601.368 123.881 600.834 117.683C599.872 104.968 599.017 99.5187 597.201 95.3515C595.705 91.9323 593.461 84.6664 590.577 73.9813C590.042 71.9511 588.76 68.7456 587.692 66.8223C586.303 64.0442 586.089 62.9757 587.051 62.014C588.012 61.0523 586.73 58.9153 581.495 53.0385C577.649 48.7645 574.55 44.3836 574.55 43.3151C574.55 42.1397 573.161 39.5753 571.559 37.5451C569.849 35.5149 568.246 32.9505 567.819 31.9888C567.392 30.8135 566.537 30.3861 565.575 30.7066C564.614 31.1341 561.943 29.4244 558.844 26.5394C552.754 20.9832 550.083 19.3804 546.237 19.3804C544.741 19.3804 542.604 18.953 541.643 18.4188C540.574 17.8845 535.873 17.2434 531.065 17.0297C523.693 16.816 522.197 17.0297 521.236 18.5256ZM514.825 82.7431C516.214 83.8116 521.342 92.3597 521.663 94.1761C521.663 94.4967 522.197 95.6721 522.838 96.8474C523.479 98.0228 524.761 102.297 525.83 106.464C527.86 115.44 527.326 118.004 521.129 128.475C518.778 132.429 516.855 136.062 516.855 136.596C516.855 140.015 482.238 179.657 479.353 179.657C478.819 179.657 478.391 180.405 478.391 181.26C478.391 183.29 475.186 183.29 472.408 181.26C470.485 179.764 470.485 179.764 472.408 179.657C474.011 179.657 474.118 179.336 473.049 178.054C472.195 176.986 472.088 176.451 472.836 176.451C474.438 176.451 473.584 169.934 471.874 168.865C471.019 168.331 471.34 167.69 472.942 166.835C474.972 165.873 475.186 165.018 474.545 162.24C473.69 158.287 470.806 152.303 464.716 141.725C458.839 131.36 458.519 129.651 462.258 124.201C465.891 118.752 477.216 106.891 482.558 102.938C484.695 101.442 489.289 97.4885 492.922 94.1761C506.491 81.7814 510.658 79.5376 514.825 82.7431ZM497.837 300.078C498.905 301.04 499.76 302.322 499.76 302.856C499.76 303.497 500.935 305.528 502.431 307.344C505.316 311.297 509.055 321.342 509.803 327.325C510.231 330.638 509.803 331.706 507.987 332.988C504.675 335.339 502.111 335.018 497.837 331.813C493.884 328.714 490.251 321.876 490.144 317.281C490.144 315.678 489.61 314.076 489.076 313.755C488.328 313.328 488.328 312.58 488.862 311.832C489.396 311.084 490.251 308.626 490.678 306.276C492.067 298.369 494.097 296.659 497.837 300.078Z" fill="white"/>
<path d="M235.537 16.8159C235.431 16.9228 231.157 17.2433 226.135 17.5639C221.007 17.7776 216.199 18.4187 215.451 18.9529C214.596 19.4872 212.994 20.0215 211.818 20.1283C210.75 20.342 207.545 21.9448 204.873 23.6544C199.638 26.9668 192.052 30.5997 190.77 30.2792C190.236 30.1723 189.915 30.4929 189.915 30.9203C189.915 31.4545 187.992 32.6299 185.642 33.6984C183.291 34.7669 181.582 35.9423 181.902 36.4765C182.223 37.0108 180.834 38.7204 178.804 40.43C176.774 42.0328 174.637 44.704 173.996 46.4137C173.248 48.337 171.432 49.8329 168.547 51.0083C166.196 51.9699 164.273 53.1453 164.273 53.5727C164.273 54.0001 162.35 56.4577 160.106 59.0221C156.153 63.5098 153.482 67.677 149.208 75.7977C148.14 77.8279 147.178 78.6827 146.858 77.9347C146.644 77.1868 146.644 77.8279 146.858 79.5375C147.178 81.1403 146.644 84.4526 145.682 87.0171C142.798 95.1377 139.699 105.93 139.165 109.456C136.28 129.651 135.746 144.61 137.669 152.837C138.203 155.509 138.951 161.279 139.165 165.659C139.592 175.597 140.34 178.375 143.011 179.123C145.469 179.978 145.682 181.58 143.439 182.435C142.05 182.969 142.05 183.397 143.439 185.854C145.148 189.274 152.2 194.937 153.482 194.082C154.871 193.227 157.969 194.616 157.222 195.791C156.901 196.326 156.153 196.539 155.619 196.219C155.085 195.791 154.657 196.005 154.657 196.433C154.657 198.249 162.777 203.912 164.594 203.378C165.021 203.271 166.196 203.805 167.051 204.767C168.013 205.622 170.256 206.37 172.073 206.37C173.996 206.37 177.842 207.118 180.727 207.972C183.612 208.827 189.061 209.575 192.8 209.575C198.677 209.575 200.066 209.896 201.668 211.926C203.378 214.063 204.339 214.277 213.955 214.063C224.639 213.849 231.264 212.46 251.671 206.156C265.453 201.989 265.24 201.775 269.513 220.795C270.368 224.855 272.078 231.373 273.253 235.219C274.428 239.066 276.565 247.187 278.061 253.277C279.557 259.475 281.266 265.031 281.694 265.565C282.869 266.954 284.685 273.686 285.54 279.563C285.86 281.913 286.929 287.47 287.89 291.851C289.6 300.399 290.348 330.531 288.959 336.194C288.318 338.865 288.425 339.079 289.493 337.797C290.241 336.942 291.844 335.98 292.912 335.873C294.728 335.553 294.835 335.766 293.66 337.049C292.698 338.224 292.698 338.865 293.553 339.399C294.194 339.827 294.515 340.788 294.194 341.536C293.98 342.284 294.087 343.246 294.622 343.78C296.652 345.917 295.583 356.709 293.446 355.32C292.912 355 292.805 355.427 293.126 356.282C293.446 357.137 293.233 358.205 292.592 358.632C290.989 359.594 291.096 361.411 292.805 361.09C293.66 360.876 293.98 362.159 293.767 365.471C293.339 370.493 295.156 376.049 297.827 378.079C298.682 378.827 299.002 379.468 298.468 379.468C297.827 379.468 298.254 380.11 299.216 380.751C300.605 381.926 300.818 382.888 300.071 386.093C299.002 390.474 299.429 391.222 302.314 391.222C303.383 391.222 304.237 391.756 304.237 392.397C304.237 393.145 305.306 393.359 306.909 393.145C308.404 392.825 309.58 393.039 309.58 393.68C309.58 394.321 311.823 394.428 315.456 393.893C319.409 393.466 321.332 393.573 321.332 394.321C321.332 396.351 323.469 395.603 323.469 393.573C323.576 391.97 323.683 391.97 325.179 393.893C326.033 395.069 327.529 395.923 328.491 395.71C330.948 395.176 335.436 396.458 334.688 397.526C333.619 399.236 337.679 399.877 339.496 398.167C340.457 397.312 342.06 396.565 343.021 396.565C343.983 396.565 344.838 395.817 344.838 394.962C344.838 394.107 345.586 393.359 346.44 393.359C347.295 393.359 348.043 392.611 348.043 391.649C348.043 390.474 347.402 390.154 346.227 390.581C344.624 391.115 344.731 390.901 346.44 389.619C347.616 388.658 349.539 388.123 350.607 388.444C353.599 389.192 358.407 386.307 360.33 382.674C362.253 378.934 362.36 378.079 360.651 378.934C359.903 379.362 360.864 378.293 362.681 376.583C365.779 373.912 366.206 372.844 366.741 366.219C367.061 362.159 367.702 358.098 368.236 357.243C368.771 356.282 368.771 354.145 368.236 352.328C367.702 350.512 367.275 346.879 367.275 344.208C367.275 341.536 366.527 336.514 365.672 333.095C364.711 329.676 364.39 325.829 364.711 324.547C365.565 322.089 365.458 296.445 364.604 295.056C364.283 294.629 363.856 292.598 363.642 290.675C362.467 282.02 358.514 259.795 357.018 253.918C355.522 248.255 355.522 247.507 356.911 246.439C358.086 245.584 358.3 244.729 357.552 243.661C356.804 242.485 356.59 242.592 356.484 244.302C356.27 247.401 349.966 227.313 343.662 203.698C336.29 175.917 335.436 172.498 334.794 168.438C334.474 166.087 332.978 158.607 331.482 151.876C329.88 145.144 328.277 137.451 327.743 134.993C327.102 132.429 326.674 123.774 326.568 115.76C326.461 106.25 326.033 100.801 325.179 100.267C324.324 99.7323 324.431 99.3049 325.392 98.557C326.995 97.5953 326.568 92.6802 324.644 89.0472C323.042 85.9486 323.149 82.743 325.072 82.1019C326.354 81.5676 326.354 80.8197 324.858 76.332C321.332 65.7537 317.806 57.633 316.418 57.0988C315.563 56.7782 315.135 56.1371 315.456 55.7097C315.776 55.1754 315.242 54.1069 314.388 53.2521C313.533 52.2905 312.785 51.222 312.785 50.6877C312.785 48.9781 301.566 38.9341 297.613 37.1176C295.476 36.156 292.805 34.2326 291.737 32.8436C290.562 31.4545 286.929 28.5695 283.617 26.4325C280.198 24.1886 277.74 22.0516 278.061 21.5174C279.022 19.9146 276.458 19.0598 269.3 18.6324C264.919 18.3118 261.928 18.6324 260.966 19.3804C260.004 20.1283 258.615 20.342 257.547 19.9146C256.479 19.3803 254.449 18.8461 253.06 18.6324C251.564 18.4187 249.641 17.7776 248.572 17.1365C247.076 16.3885 236.392 16.068 235.537 16.8159ZM249.747 84.4526C250.068 84.9869 251.35 85.628 252.739 86.0554C255.196 86.9102 255.944 89.2609 254.021 90.4363C253.487 90.7569 252.953 92.1459 252.953 93.4281C252.846 96.0994 250.602 99.5186 248.786 99.5186C248.145 99.5186 247.611 100.373 247.611 101.335C247.611 102.297 246.97 103.9 246.115 104.754C244.192 106.998 239.918 116.829 241.2 116.081C244.726 113.837 239.491 121.957 235.11 125.483C233.721 126.552 232.012 128.048 231.264 128.689C230.623 129.437 228.272 130.826 226.242 131.895C223.25 133.497 221.755 133.711 218.763 132.856C215.558 131.895 215.451 131.788 217.695 131.681L220.366 131.467L218.015 129.544C215.13 127.193 215.024 125.377 217.054 118.752C221.327 104.647 232.012 88.8335 240.345 84.3458C243.764 82.5293 248.465 82.6362 249.747 84.4526Z" fill="white"/>
<path d="M47.9212 24.6161C45.998 27.1805 45.0364 27.7148 42.1516 27.2874C40.3353 27.0737 38.6258 26.4326 38.4121 25.7915C37.8779 24.1887 36.7027 24.5092 33.9247 26.86C32.5358 28.0353 30.6126 28.997 29.5442 28.997C28.3689 28.997 26.4457 30.7066 25.0568 32.9505C23.6678 35.1944 20.3557 37.9725 17.3641 39.5753C11.3809 42.7808 8.28243 47.2685 10.4193 49.9398C11.3809 51.0083 11.3809 51.4357 10.5261 51.4357C9.88507 51.4357 9.35086 50.9015 9.35086 50.2603C9.35086 49.7261 8.81664 49.5124 8.28243 49.8329C7.64137 50.2603 7.214 52.0768 7.214 53.8933C7.32084 55.8166 6.89347 60.3044 6.35925 64.0441C5.82504 67.7839 5.82504 70.9895 6.35925 71.31C8.06874 72.3785 7.214 85.3075 5.07714 90.3295C2.19238 97.168 0.696576 126.873 3.15396 130.399C4.43608 132.215 4.54292 133.604 3.68818 137.237C2.29922 143.007 2.29922 181.794 3.68818 188.526C4.32924 191.624 4.32924 193.868 3.79502 194.189C3.26081 194.509 3.04712 195.471 3.36765 196.326C3.68818 197.074 3.47449 198.035 2.94028 198.356C2.51291 198.676 1.97869 210.323 1.87185 224.321C1.76501 248.362 1.55132 256.697 0.269205 297.941C-0.26501 312.366 -0.051324 315.892 1.33763 318.563C2.19238 320.273 2.72659 321.769 2.29922 321.769C1.87185 321.769 2.19238 322.517 2.94028 323.372C3.79502 324.333 5.18398 324.761 6.57294 324.44C8.60296 323.906 8.60296 323.906 7.00031 324.974C4.22239 326.684 4.64977 328.5 7.42768 327.539C9.56454 326.898 9.67139 327.005 8.38927 328.607C6.57294 330.851 7.64137 332.133 9.88507 330.317C10.9535 329.462 11.274 328.073 10.7398 326.15C10.2056 323.799 10.3124 323.585 11.7014 324.654C12.7698 325.615 13.5177 325.722 14.4793 324.761C15.7614 323.478 18.9667 324.333 18.9667 326.15C18.9667 326.791 18.2188 327.111 17.3641 326.684C15.7614 326.043 12.0219 331.599 13.304 332.775C13.6246 333.202 13.0904 333.736 12.1288 334.164C10.4193 334.805 9.67139 339.934 11.1672 341.429C12.4493 342.712 12.2356 346.345 10.7398 346.345C8.17558 346.345 9.24401 348.268 12.3425 349.123C13.9451 349.55 15.5477 349.871 16.082 349.764C16.5093 349.657 16.8299 350.084 16.8299 350.726C16.8299 351.26 17.2572 351.58 17.7915 351.26C18.3257 350.939 18.9667 351.794 19.1804 353.29C19.6078 355.106 19.2873 355.961 18.3257 355.961C17.4709 355.961 16.8299 356.495 16.8299 357.137C16.8299 357.671 16.4025 357.885 15.7614 357.564C13.8383 356.389 12.3425 358.098 13.7314 359.808C14.7998 361.09 14.693 361.197 13.1972 360.663C11.7014 360.128 11.3809 360.556 11.7014 363.013C12.0219 365.578 12.5561 366.219 15.6546 366.646C18.8599 367.074 19.2873 367.608 19.6078 370.6C19.8215 372.523 19.5009 374.126 18.9667 374.126C18.3257 374.126 17.8983 373.592 17.8983 373.057C17.8983 372.309 17.2572 372.309 15.8683 372.951C14.7998 373.592 13.6246 373.805 13.304 373.485C12.9835 373.164 11.8082 373.378 10.7398 374.019C8.92348 375.088 8.92348 375.088 10.7398 375.194C11.8082 375.194 13.4109 375.835 14.2656 376.69C15.0135 377.545 16.723 377.973 17.8983 377.652C19.7146 377.118 20.0352 377.652 20.142 380.644C20.2488 382.674 20.3557 385.238 20.4625 386.414C20.5694 388.017 21.2104 388.444 23.2404 388.23C28.3689 387.482 29.9715 387.803 29.01 389.192C28.5826 390.047 29.4373 390.154 31.8947 389.619C33.9247 389.192 35.8479 388.337 36.2753 387.696C36.8095 386.841 37.2369 387.055 37.6642 388.23C38.4121 390.26 43.968 392.825 45.5706 391.863C46.1048 391.543 47.2801 391.863 48.1348 392.718C49.417 394 54.1181 394.855 58.1781 394.534C58.926 394.428 59.2465 393.573 58.926 392.504C58.3918 391.115 58.4986 391.008 59.3534 392.184C60.5286 393.893 64.375 392.932 63.3066 391.222C62.986 390.688 63.3065 390.474 64.1613 390.795C65.016 391.115 66.2982 390.581 67.0461 389.619C67.794 388.764 69.0761 388.017 70.0377 388.017C72.6019 388.017 89.3762 371.241 94.3979 363.761C99.9537 355.427 100.381 354.145 99.0989 351.58C98.2442 350.191 98.351 348.909 99.0989 347.413C99.9537 345.81 99.9537 345.276 98.9921 345.276C98.351 345.276 98.0305 344.421 98.3511 343.246C98.6716 341.964 97.9237 340.361 96.2142 338.865C94.5047 337.476 93.8636 335.98 94.291 334.698C95.0389 332.24 94.0773 329.569 92.0473 328.821C91.1926 328.5 87.6667 329.142 84.3546 330.317C76.5551 333.095 75.273 332.027 75.4866 323.265C76.0209 295.59 76.5551 260.757 77.0893 214.384C77.4098 184.358 77.944 138.733 78.2646 112.875C79.1193 45.8795 78.1577 39.2547 67.0461 28.5696C62.1313 23.8681 61.1697 23.4407 57.8576 23.975C55.1865 24.4024 53.9044 24.1887 53.477 23.0133C52.6223 20.6626 50.2717 21.3037 47.9212 24.6161Z" fill="white"/>
</svg>
