<svg width="290" height="229" viewBox="0 0 290 229" fill="none" xmlns="http://www.w3.org/2000/svg">
<path d="M193.681 210.131C197.231 212.543 201.285 214.109 205.533 214.711C212.855 215.823 220.094 215.459 227.105 212.739C235.266 209.575 237.413 202.868 232.496 195.663C228.074 189.185 222.261 184.202 215.472 180.406C201.264 172.462 187.118 164.401 172.621 156.979C169.01 155.125 165.324 153.364 161.788 151.354C151.286 145.37 142.622 137.481 136.883 126.662C132.929 119.29 130.604 111.152 130.067 102.801C129.642 96.1278 131.272 89.7323 134.078 83.6844C143.164 64.0865 157.563 49.6994 176.946 40.3648C192.178 33.0323 208.306 30.1265 225.183 31.2249C235.713 31.9117 245.871 34.0361 255.409 38.6548C265.853 43.7127 274.592 50.8729 281.297 60.3854C288.697 70.8851 290.916 82.6695 289.561 95.2658C289.175 98.8583 288.341 102.376 287.578 105.904C286.564 110.593 283.311 113.393 279.547 115.69C277.3 117.06 274.053 115.509 273.284 112.945C273.006 112.019 273.05 111.104 273.753 110.34C274.005 110.069 274.271 109.812 274.55 109.569C280.106 104.695 281.347 98.6943 279.522 91.6843C274.117 70.8935 261.631 56.7845 241.024 50.0776C232.249 47.2219 223.311 45.3811 214.094 45.3255C196.923 45.2171 181.362 50.4975 167.121 59.9211C162.016 63.3023 157.121 66.9311 153.074 71.6137C137.886 89.2373 139.328 114.018 156.471 129.782C160.519 133.505 165.11 136.455 169.776 139.294C179.04 144.925 188.851 149.505 198.548 154.31C209.506 159.732 220.255 165.516 230.03 172.94C232.641 174.866 235.053 177.049 237.229 179.455C249.071 192.9 246.793 212.025 231.952 222.052C221.875 228.862 210.772 230.366 199.045 227.354C191.981 225.539 185.548 222.294 179.498 218.303C176.293 216.19 175.707 212.767 175.737 209.233C175.796 207.561 176.178 205.916 176.862 204.389C178.298 200.952 180.226 197.782 182.245 194.685C184.026 191.954 186.809 191.023 189.962 191.262C191.162 191.362 192.344 191.61 193.484 191.999C198.656 193.715 203.841 195.389 209.039 197.02C209.928 197.275 210.778 197.649 211.567 198.133C213.319 199.262 214.297 200.827 214.344 202.965C214.386 204.452 214.116 205.93 213.553 207.306C212.13 210.751 209.664 211.991 206.006 211.071C204.486 210.685 202.981 210.237 201.464 209.831C198.901 209.121 196.182 209.226 193.681 210.131Z" fill="white"/>
<path d="M93.8713 106.684C93.8713 92.6057 93.8963 78.5273 93.8713 64.4517C93.8713 59.3298 94.8157 54.5193 97.7601 50.2343C98.0378 49.8534 98.2656 49.4557 98.5545 49.0942C99.7489 47.5871 101.135 46.3136 103.235 46.739C105.429 47.1811 107.146 48.3351 107.979 50.5568C108.358 51.603 108.546 52.7087 108.535 53.8213C108.585 66.2341 108.101 78.6274 107.607 91.029C107.051 105.088 106.443 119.164 106.993 133.242C107.115 136.37 107.176 139.532 107.826 142.635C108.06 143.913 108.564 145.127 109.304 146.195C110.044 147.263 111.004 148.16 112.118 148.827C114.473 150.298 114.807 151.077 114.062 153.616C112.498 158.929 109.662 163.381 104.963 166.479C100.916 169.143 97.7406 168.067 96.1268 163.437C94.7102 159.374 94.2769 155.123 94.2213 150.86C94.088 140.95 94.0797 131.04 94.038 121.132C94.0186 116.316 94.038 111.5 94.038 106.673L93.8713 106.684Z" fill="white"/>
<path d="M7.78856 36.6871C9.06351 36.8567 10.1607 37.0319 11.2634 37.1459C16.7188 37.702 21.9547 36.6231 27.0573 34.8379C42.6122 29.3879 58.6811 25.8593 74.6888 22.1193C90.8882 18.3348 107.218 15.1677 123.601 12.3009C135.982 10.1264 148.4 8.17995 160.855 6.46152C171.027 5.0712 181.215 3.81157 191.429 2.81054C202.478 1.72887 213.547 0.883558 224.644 0.3747C231.491 0.0604883 238.321 -0.262065 245.171 0.332988C247.932 0.574903 250.449 1.27284 252.588 3.04689C255.401 5.38263 255.59 8.03814 253.19 10.7298C251.885 12.1808 250.261 13.3088 248.446 14.0249C246.779 14.7033 245.074 14.8368 243.318 14.1722C234.238 10.7326 224.836 10.7826 215.386 11.7809C206.006 12.7708 196.656 14.0054 187.262 14.9063C176.493 15.9268 165.78 17.445 155.083 19.094C131.959 22.656 109.082 27.4359 86.3078 32.7469C62.4448 38.3082 38.9374 45.1319 15.691 52.8704C13.855 53.4821 11.9356 53.8492 10.1107 54.4915C8.77463 54.9614 7.56357 54.7473 6.32473 54.3135C0.411064 52.2503 -2.37216 43.6109 2.48876 39.0506C3.9315 37.6764 5.80311 36.8417 7.78856 36.6871Z" fill="white"/>
</svg>
