<svg width="5" height="10" viewBox="0 0 5 10" fill="none" xmlns="http://www.w3.org/2000/svg">
<path d="M2.53516 4.34961V4.37891C2.53516 4.40625 2.54297 4.43359 2.55859 4.46094C2.57812 4.48828 2.60352 4.50195 2.63477 4.50195H2.65234C2.66016 4.49805 2.67578 4.49023 2.69922 4.47852C2.72656 4.4668 2.75195 4.45508 2.77539 4.44336C2.80273 4.42773 2.82812 4.41406 2.85156 4.40234C2.875 4.39062 2.89062 4.38281 2.89844 4.37891C2.95312 4.35547 3.00391 4.33594 3.05078 4.32031C3.09766 4.30469 3.14453 4.28906 3.19141 4.27344C3.23828 4.25391 3.28711 4.23438 3.33789 4.21484C3.38867 4.19531 3.44531 4.16992 3.50781 4.13867C3.52344 4.12695 3.54688 4.10938 3.57812 4.08594C3.61328 4.0625 3.64648 4.03906 3.67773 4.01562C3.71289 3.98828 3.74219 3.96289 3.76562 3.93945C3.78906 3.91602 3.80078 3.89453 3.80078 3.875V3.8457C3.78906 3.83398 3.77344 3.81836 3.75391 3.79883C3.73438 3.77539 3.71289 3.75 3.68945 3.72266C3.66992 3.69531 3.65039 3.67188 3.63086 3.65234C3.61133 3.62891 3.59961 3.61133 3.5957 3.59961C3.58789 3.5918 3.57812 3.58594 3.56641 3.58203C3.55859 3.57422 3.55273 3.57031 3.54883 3.57031C3.53711 3.57031 3.51172 3.56836 3.47266 3.56445C3.4375 3.55664 3.41406 3.55273 3.40234 3.55273C3.33984 3.55273 3.26758 3.57031 3.18555 3.60547C3.10742 3.63672 3.0293 3.67969 2.95117 3.73438C2.87305 3.78516 2.80273 3.8418 2.74023 3.9043C2.67773 3.9668 2.63281 4.02734 2.60547 4.08594C2.58594 4.14062 2.56836 4.18555 2.55273 4.2207C2.54102 4.25586 2.53516 4.29883 2.53516 4.34961ZM0.689453 7.55469C0.685547 7.51562 0.679688 7.44531 0.671875 7.34375C0.667969 7.24219 0.662109 7.13672 0.654297 7.02734C0.646484 6.91406 0.638672 6.80664 0.630859 6.70508C0.623047 6.60352 0.619141 6.53125 0.619141 6.48828V6.33594C0.619141 6.24609 0.628906 6.16602 0.648438 6.0957C0.671875 6.02148 0.701172 5.93945 0.736328 5.84961C0.736328 5.8418 0.742188 5.82227 0.753906 5.79102C0.765625 5.75977 0.773438 5.73633 0.777344 5.7207C0.804688 5.62305 0.837891 5.54688 0.876953 5.49219C0.916016 5.43359 0.951172 5.36133 0.982422 5.27539C0.986328 5.27148 0.992188 5.25781 1 5.23438C1.00781 5.20703 1.01562 5.17969 1.02344 5.15234C1.03516 5.12109 1.04492 5.09375 1.05273 5.07031C1.06055 5.04297 1.06445 5.02539 1.06445 5.01758C1.06836 5.01367 1.07617 5 1.08789 4.97656C1.09961 4.95312 1.11133 4.92969 1.12305 4.90625C1.13867 4.87891 1.15234 4.85352 1.16406 4.83008C1.17578 4.80664 1.18359 4.79297 1.1875 4.78906C1.1875 4.78516 1.18945 4.77344 1.19336 4.75391C1.20117 4.73047 1.20703 4.70703 1.21094 4.68359C1.21484 4.66016 1.21875 4.63867 1.22266 4.61914C1.22656 4.59961 1.22852 4.58789 1.22852 4.58398C1.23242 4.57617 1.24414 4.55664 1.26367 4.52539C1.2832 4.49414 1.30078 4.4707 1.31641 4.45508C1.32031 4.45117 1.33789 4.43359 1.36914 4.40234C1.40039 4.36719 1.43359 4.33203 1.46875 4.29688C1.50781 4.25781 1.54297 4.22266 1.57422 4.19141C1.60547 4.16016 1.625 4.14258 1.63281 4.13867C1.64453 4.12695 1.66016 4.10938 1.67969 4.08594C1.70312 4.05859 1.72461 4.0332 1.74414 4.00977C1.76758 3.98242 1.78711 3.95898 1.80273 3.93945C1.82227 3.91602 1.83203 3.89844 1.83203 3.88672C1.83984 3.87891 1.85352 3.85352 1.87305 3.81055C1.89648 3.76367 1.91406 3.73828 1.92578 3.73438C1.92578 3.72656 1.93555 3.71875 1.95508 3.71094C1.97461 3.69922 1.98828 3.68945 1.99609 3.68164C2.00391 3.68164 2.02539 3.67773 2.06055 3.66992C2.0957 3.6582 2.11719 3.64844 2.125 3.64062C2.13672 3.63281 2.14844 3.62305 2.16016 3.61133L2.20117 3.57031C2.20898 3.5625 2.2207 3.54883 2.23633 3.5293C2.25195 3.50586 2.26758 3.48242 2.2832 3.45898C2.30273 3.43555 2.32031 3.41602 2.33594 3.40039C2.35156 3.38086 2.35938 3.36914 2.35938 3.36523C2.40234 3.33008 2.46484 3.29297 2.54688 3.25391C2.62891 3.21094 2.69141 3.18164 2.73438 3.16602C2.73438 3.1543 2.73828 3.14453 2.74609 3.13672C2.75781 3.12891 2.76367 3.12109 2.76367 3.11328C2.88867 3.01562 3.02539 2.95117 3.17383 2.91992C3.32617 2.88867 3.47852 2.87305 3.63086 2.87305C3.68555 2.87305 3.76172 2.87891 3.85938 2.89062C3.96094 2.90234 4.06445 2.92188 4.16992 2.94922C4.27539 2.97266 4.37109 3.00586 4.45703 3.04883C4.54688 3.08789 4.60938 3.13672 4.64453 3.19531C4.65234 3.20312 4.66016 3.23047 4.66797 3.27734C4.67578 3.32031 4.67969 3.34961 4.67969 3.36523C4.68359 3.36914 4.68945 3.38086 4.69727 3.40039C4.70508 3.41602 4.71484 3.43555 4.72656 3.45898C4.73828 3.48242 4.74805 3.50586 4.75586 3.5293C4.76367 3.54883 4.76953 3.5625 4.77344 3.57031V3.59961V3.64062C4.75391 3.74219 4.73828 3.84766 4.72656 3.95703C4.71484 4.0625 4.6875 4.16016 4.64453 4.25C4.64453 4.26562 4.63281 4.28711 4.60938 4.31445C4.58984 4.3418 4.57617 4.36328 4.56836 4.37891C4.51367 4.44531 4.45898 4.51172 4.4043 4.57812C4.34961 4.64453 4.2832 4.70117 4.20508 4.74805C4.19336 4.75195 4.16797 4.76367 4.12891 4.7832C4.08984 4.80273 4.04688 4.82422 4 4.84766C3.95312 4.86719 3.91016 4.88672 3.87109 4.90625C3.83203 4.92578 3.80859 4.93945 3.80078 4.94727C3.74609 4.97461 3.68945 4.99609 3.63086 5.01172C3.57227 5.02734 3.51172 5.04102 3.44922 5.05273C3.39062 5.06445 3.33203 5.07812 3.27344 5.09375C3.21484 5.10938 3.1582 5.12891 3.10352 5.15234H2.24805C2.17773 5.15234 2.11328 5.16211 2.05469 5.18164C2 5.19727 1.95703 5.24219 1.92578 5.31641C1.91797 5.32422 1.9043 5.35156 1.88477 5.39844C1.86914 5.44141 1.85156 5.48828 1.83203 5.53906C1.81641 5.58984 1.79883 5.63672 1.7793 5.67969C1.76367 5.72266 1.75391 5.75 1.75 5.76172C1.74609 5.77344 1.73633 5.79297 1.7207 5.82031C1.70898 5.84766 1.69336 5.87695 1.67383 5.9082C1.6582 5.93945 1.64258 5.96875 1.62695 5.99609C1.61133 6.02344 1.59961 6.04297 1.5918 6.05469V6.33008C1.5918 6.39258 1.5957 6.47266 1.60352 6.57031C1.61523 6.66797 1.63672 6.76367 1.66797 6.85742C1.69922 6.94727 1.74414 7.02539 1.80273 7.0918C1.86133 7.1582 1.93945 7.19141 2.03711 7.19141C2.08008 7.19141 2.11914 7.18359 2.1543 7.16797C2.19336 7.14844 2.23828 7.13867 2.28906 7.13867H2.40039C2.4082 7.14648 2.42969 7.1582 2.46484 7.17383C2.5 7.18555 2.52344 7.19141 2.53516 7.19141C2.55859 7.17969 2.58984 7.15039 2.62891 7.10352C2.66797 7.05664 2.68945 7.01758 2.69336 6.98633L3.13867 6.5293H3.20312C3.26562 6.5293 3.3125 6.55859 3.34375 6.61719C3.37891 6.67188 3.39648 6.72656 3.39648 6.78125C3.39648 6.89844 3.36523 6.99414 3.30273 7.06836C3.24023 7.14258 3.17383 7.2207 3.10352 7.30273C3.0957 7.31055 3.08008 7.33203 3.05664 7.36719C3.0332 7.40234 3.02148 7.42383 3.02148 7.43164C2.98633 7.48242 2.9375 7.52344 2.875 7.55469C2.81641 7.58203 2.76953 7.62305 2.73438 7.67773C2.72656 7.68164 2.71289 7.70117 2.69336 7.73633C2.67383 7.77148 2.66016 7.79102 2.65234 7.79492C2.64844 7.79883 2.63477 7.80469 2.61133 7.8125C2.58789 7.81641 2.56055 7.82422 2.5293 7.83594C2.50195 7.84375 2.47461 7.85156 2.44727 7.85938C2.42383 7.86719 2.4082 7.87305 2.40039 7.87695C2.33398 7.9082 2.27148 7.94336 2.21289 7.98242C2.1543 8.01758 2.09375 8.05078 2.03125 8.08203C1.97266 8.11719 1.91016 8.14648 1.84375 8.16992C1.78125 8.19336 1.71094 8.20508 1.63281 8.20508C1.55859 8.20508 1.47461 8.18164 1.38086 8.13477C1.28711 8.0918 1.19336 8.03906 1.09961 7.97656C1.00977 7.91016 0.927734 7.83984 0.853516 7.76562C0.779297 7.6875 0.724609 7.61719 0.689453 7.55469Z" fill="white"/>
</svg>
