<svg width="517" height="517" viewBox="0 0 517 517" fill="none" xmlns="http://www.w3.org/2000/svg">
<path d="M514.5 258.5C514.5 399.885 399.885 514.5 258.5 514.5C117.115 514.5 2.5 399.885 2.5 258.5C2.5 117.115 117.115 2.5 258.5 2.5C399.885 2.5 514.5 117.115 514.5 258.5Z" fill="currentColor"/>
<path fill-rule="evenodd" clip-rule="evenodd" d="M76.0537 180.17C76.2284 178.337 78.5537 176.17 78.5537 176.17L89.5537 175.67C89.5537 175.67 98.6939 176.049 104.554 176.17L104.593 176.171C114.134 176.368 119.504 176.479 129.054 176.17C140.205 175.81 146.468 175.429 157.554 174.17C167.761 173.011 183.554 170.17 183.554 170.17L197.054 167.67C197.054 167.67 200.379 157.484 203.054 151.17C203.36 150.447 203.652 149.753 203.935 149.083L203.946 149.057L203.948 149.053C206.642 142.656 208.423 138.429 212.554 132.17C215.846 127.182 218.328 124.257 222.054 120.17C226.523 115.269 233.554 107.67 233.554 107.67C233.554 107.67 241.815 99.5565 248.054 95.6704C255.257 91.1836 259.667 88.467 268.054 87.1704C269.381 86.9653 270.633 86.7254 271.849 86.4925C275.407 85.8111 278.654 85.1891 282.554 85.6704C288.996 86.4654 293.075 86.9725 297.554 91.6704C300.756 95.0297 301.481 98.0646 302.054 102.67C302.716 107.991 299.554 116.17 299.554 116.17C299.554 116.17 294.051 127.21 289.554 133.67C284.726 140.606 281.781 144.457 275.554 150.17C268.864 156.308 264.268 158.949 256.526 163.399L256.054 163.67C248.557 167.98 244.235 170.371 236.054 173.17C228.659 175.7 216.554 177.67 216.554 177.67C216.554 177.67 214.068 189.851 212.554 197.67C211.625 202.463 210.944 206.309 210.277 210.069C209.479 214.568 208.704 218.943 207.554 224.67C205.548 234.658 203.054 252.17 203.054 252.17C203.054 252.17 218.274 251.542 228.054 251.67C236.08 251.776 240.533 251.861 248.554 252.17C254.375 252.395 258.542 252.328 263.202 252.254C265.727 252.213 268.397 252.17 271.554 252.17H273.554H292.054H314.554L328.054 250.67C328.054 250.67 329.053 246.367 329.554 242.67C330.407 236.371 331.155 232.872 332.554 226.67C333.44 222.744 333.959 220.544 335.054 216.67L335.158 216.303C337.059 209.577 338.168 205.653 341.054 199.17C343.114 194.543 344.527 192.061 347.054 187.67C347.514 186.871 347.938 186.124 348.34 185.415L348.344 185.408L348.346 185.406C350.471 181.661 352.002 178.965 355.054 175.17C358.688 170.652 361.132 168.422 365.554 164.67C369.604 161.234 372.004 159.411 376.554 156.67C382.091 153.335 385.398 151.642 391.554 149.67C400.549 146.789 407.055 145.423 416.5 145.5C425.364 145.573 430.183 146.271 438.054 149.67C444.021 152.248 447.552 153.982 452.054 158.67C453.065 159.724 454.5 161.5 454.5 161.5C454.5 161.5 456.93 165.323 458 168C458.136 168.34 458.261 168.653 458.376 168.941C459.414 171.535 459.649 172.123 459.771 172.734C459.807 172.913 459.833 173.095 459.867 173.329C459.908 173.612 459.96 173.972 460.054 174.5C460.68 178.026 460.054 183.67 460.054 183.67C458.298 193.983 454.946 200.33 450 208.5C445.682 215.632 432 230.5 432 230.5C432 230.5 423.582 238.522 418 242.67C411.907 247.199 407.797 249.096 401.203 252.14C400.828 252.313 400.445 252.489 400.054 252.67C394.53 255.224 385.56 258.393 385.56 258.393C385.56 258.393 378.549 260.152 374 261C362.84 263.08 345.054 264.67 345.054 264.67C345.054 264.67 343.637 279.31 342.554 288.67C342.208 291.654 341.891 294.451 341.589 297.114L341.589 297.117C339.789 312.988 338.528 324.111 335.054 341.67C332.832 352.897 331.052 359.907 328.569 369.685C328.093 371.562 327.59 373.54 327.054 375.67C324.985 383.887 323.439 389.551 321.621 396.214L321.619 396.221L321.618 396.224L321.616 396.229C320.834 399.097 320.001 402.15 319.054 405.67C316.532 415.047 312.554 429.67 312.554 429.67C312.554 429.67 310.3 431.67 308.554 431.67C306.807 431.67 304.554 429.67 304.554 429.67C304.554 429.67 305.353 422.037 306.054 417.17C306.472 414.271 306.895 412.036 307.321 409.789C307.731 407.629 308.143 405.457 308.554 402.67C309.362 397.189 309.734 393.157 310.137 388.787L310.137 388.786C310.391 386.031 310.658 383.142 311.054 379.67C311.99 371.465 312.549 366.868 313.554 358.67C314.192 353.464 314.727 349.37 315.257 345.311C315.821 340.991 316.38 336.711 317.054 331.17C317.857 324.565 318.425 319.356 318.988 314.193L318.988 314.188L318.989 314.185C319.59 308.676 320.185 303.217 321.054 296.17C322.524 284.248 325.054 265.67 325.054 265.67C325.054 265.67 311.354 266.841 302.554 267.17C295.214 267.445 289.96 267.364 284.084 267.272C280.9 267.223 277.534 267.17 273.554 267.17H267.554C264.946 267.17 262.741 267.193 260.655 267.214C256.806 267.253 253.365 267.287 248.554 267.17C243.396 267.045 239.397 266.732 235.381 266.419C231.48 266.114 227.563 265.807 222.554 265.67C213.38 265.42 200 265.67 200 265.67C200 265.67 197.361 275.836 195.554 282.17C192.599 292.527 185.054 307.67 185.054 307.67C185.054 307.67 174.081 325.755 164.554 335.17C161.79 337.902 159.859 339.868 158.331 341.424C154.592 345.231 153.267 346.581 148.054 350.67C140.71 356.431 127.554 364.17 127.554 364.17C127.554 364.17 113.554 371.17 103.054 373.67C92.5537 376.17 82.0537 375.67 82.0537 375.67C82.0537 375.67 72.5305 374.367 68.0537 370.67C63.6987 367.074 62.366 364.184 60.1081 359.288L60.0538 359.17C56.7317 351.967 56.5 339.17 56.5 339.17C56.5 339.17 56.7401 328.914 58 322.5C59.1788 316.499 60.2719 313.195 62.5 307.5C65.4408 299.983 68.1027 295.782 73.0537 289.17C78.2683 282.207 81.938 278.82 88.5537 273.17C94.4055 268.174 97.856 265.459 104.554 261.67C113.486 256.618 117.448 255.452 127.554 253.67C136.111 252.162 142.649 252.165 151.11 252.17C151.585 252.17 152.066 252.17 152.554 252.17H181.054C181.054 252.17 183.624 240.923 185.054 233.67C186.362 227.034 187.127 222.019 187.927 216.772C188.533 212.805 189.158 208.705 190.054 203.67C191.55 195.262 194.054 182.17 194.054 182.17C194.054 182.17 176.474 185.712 165.054 186.67C151.433 187.814 143.125 188.187 129.054 188.17C116.011 188.155 108.775 187.666 95.9744 186.8L94.0537 186.67C87.9861 186.261 78.5537 185.17 78.5537 185.17C78.5537 185.17 75.8467 182.344 76.0537 180.17ZM220 163.67C220 163.67 224.609 151.38 228.054 144.67C229.062 142.707 229.834 141.106 230.534 139.656C232.119 136.371 233.331 133.86 236.054 129.67C238.745 125.528 241.457 122.283 244.455 118.693C245.139 117.875 245.837 117.039 246.554 116.17C249.892 112.123 252.387 109.845 256.054 106.67C260.411 102.898 263.565 101.537 268.786 99.2859L269.054 99.1704C269.48 98.9864 269.887 98.8092 270.279 98.6385L270.283 98.6367L270.285 98.6358L270.287 98.6348C273.535 97.2192 275.744 96.2565 279.554 95.6704C280.364 95.5457 281.122 95.3948 281.846 95.2507C284.568 94.7086 286.808 94.2626 289.554 95.6704C291.401 96.6176 292.553 97.352 293.554 99.1704C294.966 101.736 294.373 105.653 293.554 109.67C292.75 113.615 291.565 115.683 289.554 119.17C287.847 122.129 286.335 123.847 284.423 126.018C283.843 126.678 283.225 127.379 282.554 128.17C278.533 132.909 276.247 135.597 271.554 139.67C271.204 139.974 270.863 140.271 270.529 140.561L270.523 140.566C264.458 145.836 260.848 148.973 253.554 153.17C247.65 156.568 243.541 158.094 237.054 160.17C231.03 162.098 220 163.67 220 163.67ZM176.554 265.67H155C155 265.67 141.005 265.203 132.5 266.419C120.823 268.087 114.881 269.972 104.554 275.67C96.7229 279.991 86.0537 289.17 86.0537 289.17C86.0537 289.17 77.0622 297.207 73.0537 303.67C68.0413 311.752 66.4651 317.974 65.0537 326.67C63.9207 333.652 65.0537 343.67 65.0537 343.67C65.0537 343.67 66.3454 351.237 68.0537 355.67C68.0537 355.67 70.2394 361.542 73.0537 364.17C77.4334 368.261 82.0056 368.224 87.6829 368.179C88.3475 368.173 89.0273 368.168 89.7237 368.169C96.3686 368.179 105.856 364.286 115 359.17C125.531 353.278 138.554 339.17 138.554 339.17C146.469 330.533 156.554 315.17 156.554 315.17C156.554 315.17 163.51 302.001 167.554 293.17C172.258 282.896 176.554 265.67 176.554 265.67ZM350 232.5C349.056 238.726 348 248.5 348 248.5C348 248.5 359.338 248.113 366.5 247C375.859 245.545 383.595 243.751 390 241C390.965 240.586 391.895 240.19 392.803 239.803C397.926 237.623 402.329 235.748 408 232.67L408.256 232.531C414.053 229.385 416.499 228.058 422 224C426.45 220.718 430.004 218.02 434.5 213.5C435.183 212.814 435.836 212.165 436.461 211.542L436.485 211.519L436.493 211.511L436.504 211.5L436.509 211.495C441.89 206.145 445.299 202.757 449 194.5C451.533 188.849 452.74 183.46 453.054 179.17C453.284 176.03 453.22 174.095 452.054 171.17C450.887 168.246 448.18 164.085 444 161.5C442.807 160.762 441.863 160.348 440.786 159.895C440.063 159.591 439.227 159.24 438.054 158.67C432.813 156.126 429.372 155.458 423.554 155.17C418.449 154.918 415.603 154.88 410.554 155.67C407.715 156.115 403.42 157.574 403.42 157.574C403.42 157.574 399.152 158.919 396.5 160C395.963 160.219 395.483 160.411 395.044 160.587C392.365 161.66 391.142 162.15 387.054 164.67C376.588 171.123 371.876 177.125 365.554 187.67C365.383 187.955 365.216 188.234 365.051 188.508L365.032 188.539C361.903 193.752 359.85 197.172 357.5 203.214C355.829 207.511 354.755 209.996 353.5 214.5C352.534 217.968 351.5 223.5 351.5 223.5C351.5 223.5 350.534 228.977 350 232.5Z" fill="#FAFAFA"/>
<path d="M94.0537 186.67C87.9861 186.261 78.5537 185.17 78.5537 185.17C78.5537 185.17 75.8467 182.344 76.0537 180.17C76.2284 178.337 78.5537 176.17 78.5537 176.17L89.5537 175.67C89.5537 175.67 98.6939 176.049 104.554 176.17M94.0537 186.67C94.7082 186.715 95.348 186.758 95.9744 186.8M94.0537 186.67L95.9744 186.8M181.054 252.17C181.054 252.17 183.624 240.923 185.054 233.67C186.362 227.034 187.127 222.019 187.927 216.772C188.533 212.805 189.158 208.705 190.054 203.67C191.55 195.262 194.054 182.17 194.054 182.17C194.054 182.17 176.474 185.712 165.054 186.67C151.433 187.814 143.125 188.187 129.054 188.17C116.011 188.155 108.775 187.666 95.9744 186.8M181.054 252.17C181.054 252.17 163.684 252.17 152.554 252.17M181.054 252.17H152.554M152.554 252.17C152.066 252.17 151.585 252.17 151.11 252.17C142.649 252.165 136.111 252.162 127.554 253.67C117.448 255.452 113.486 256.618 104.554 261.67C97.856 265.459 94.4055 268.174 88.5537 273.17C81.938 278.82 78.2683 282.207 73.0537 289.17C68.1027 295.782 65.4408 299.983 62.5 307.5C60.2719 313.195 59.1788 316.499 58 322.5C56.7401 328.914 56.5 339.17 56.5 339.17C56.5 339.17 56.7317 351.967 60.0538 359.17M60.0538 359.17L60.1081 359.288M60.0538 359.17C60.072 359.21 60.0901 359.249 60.1081 359.288M335.054 216.67C333.959 220.544 333.44 222.744 332.554 226.67C331.155 232.872 330.407 236.371 329.554 242.67C329.053 246.367 328.054 250.67 328.054 250.67L314.554 252.17M335.054 216.67L335.158 216.303M335.054 216.67C335.089 216.547 335.123 216.424 335.158 216.303M256.054 163.67C248.557 167.98 244.235 170.371 236.054 173.17C228.659 175.7 216.554 177.67 216.554 177.67C216.554 177.67 214.068 189.851 212.554 197.67C211.625 202.463 210.944 206.309 210.277 210.069C209.479 214.568 208.704 218.943 207.554 224.67C205.548 234.658 203.054 252.17 203.054 252.17C203.054 252.17 218.274 251.542 228.054 251.67C236.08 251.776 240.533 251.861 248.554 252.17C254.375 252.395 258.542 252.328 263.202 252.254C265.727 252.213 268.397 252.17 271.554 252.17M256.054 163.67L256.526 163.399M256.054 163.67C256.212 163.579 256.37 163.489 256.526 163.399M104.554 176.17L104.593 176.171M104.554 176.17C104.567 176.171 104.58 176.171 104.593 176.171M269.054 99.1704L268.786 99.2859M269.054 99.1704C268.964 99.2092 268.875 99.2477 268.786 99.2859M269.054 99.1704C269.48 98.9864 269.887 98.8092 270.279 98.6385L270.283 98.6367L270.285 98.6358L270.287 98.6348C273.535 97.2192 275.744 96.2565 279.554 95.6704C280.364 95.5457 281.122 95.3948 281.846 95.2507C284.568 94.7086 286.808 94.2626 289.554 95.6704C291.401 96.6176 292.553 97.352 293.554 99.1704C294.966 101.736 294.373 105.653 293.554 109.67C292.75 113.615 291.565 115.683 289.554 119.17C287.847 122.129 286.335 123.847 284.423 126.018C283.843 126.678 283.225 127.379 282.554 128.17C278.533 132.909 276.247 135.597 271.554 139.67C271.204 139.974 270.863 140.271 270.529 140.561M273.554 267.17C264.962 267.17 276.145 267.17 267.554 267.17M273.554 267.17H267.554M273.554 267.17C277.534 267.17 280.9 267.223 284.084 267.272C289.96 267.364 295.214 267.445 302.554 267.17C311.354 266.841 325.054 265.67 325.054 265.67C325.054 265.67 322.524 284.248 321.054 296.17C320.185 303.217 319.59 308.676 318.989 314.185L318.988 314.188L318.988 314.193C318.425 319.356 317.857 324.565 317.054 331.17C316.38 336.711 315.821 340.991 315.257 345.311C314.727 349.37 314.192 353.464 313.554 358.67C312.549 366.868 311.99 371.465 311.054 379.67C310.658 383.142 310.391 386.031 310.137 388.786L310.137 388.787C309.734 393.157 309.362 397.189 308.554 402.67C308.143 405.457 307.731 407.629 307.321 409.789C306.895 412.036 306.472 414.271 306.054 417.17C305.353 422.037 304.554 429.67 304.554 429.67C304.554 429.67 306.807 431.67 308.554 431.67C310.3 431.67 312.554 429.67 312.554 429.67C312.554 429.67 316.532 415.047 319.054 405.67C320.001 402.15 320.834 399.097 321.616 396.229L321.618 396.224L321.619 396.221M267.554 267.17C264.946 267.17 262.741 267.193 260.655 267.214C256.806 267.253 253.365 267.287 248.554 267.17C243.396 267.045 239.397 266.732 235.381 266.419C231.48 266.114 227.563 265.807 222.554 265.67C213.38 265.42 200 265.67 200 265.67C200 265.67 197.361 275.836 195.554 282.17C192.599 292.527 185.054 307.67 185.054 307.67C185.054 307.67 174.081 325.755 164.554 335.17C161.79 337.902 159.859 339.868 158.331 341.424C154.592 345.231 153.267 346.581 148.054 350.67C140.71 356.431 127.554 364.17 127.554 364.17C127.554 364.17 113.554 371.17 103.054 373.67C92.5537 376.17 82.0537 375.67 82.0537 375.67C82.0537 375.67 72.5305 374.367 68.0537 370.67C63.6987 367.074 62.366 364.184 60.1081 359.288M271.554 252.17C278.583 252.17 266.524 252.17 273.554 252.17M271.554 252.17H273.554M273.554 252.17C280.778 252.17 284.829 252.17 292.054 252.17M273.554 252.17H292.054M292.054 252.17C300.841 252.17 314.554 252.17 314.554 252.17M292.054 252.17H314.554M335.158 216.303C337.059 209.577 338.168 205.653 341.054 199.17C343.114 194.543 344.527 192.061 347.054 187.67C347.514 186.871 347.938 186.124 348.34 185.415M256.526 163.399C264.268 158.949 268.864 156.308 275.554 150.17C281.781 144.457 284.726 140.606 289.554 133.67C294.051 127.21 299.554 116.17 299.554 116.17C299.554 116.17 302.716 107.991 302.054 102.67C301.481 98.0646 300.756 95.0297 297.554 91.6704C293.075 86.9725 288.996 86.4654 282.554 85.6704C278.654 85.1891 275.407 85.8111 271.849 86.4925C270.633 86.7254 269.381 86.9653 268.054 87.1704C259.667 88.467 255.257 91.1836 248.054 95.6704C241.815 99.5565 233.554 107.67 233.554 107.67C233.554 107.67 226.523 115.269 222.054 120.17C218.328 124.257 215.846 127.182 212.554 132.17C208.423 138.429 206.642 142.656 203.948 149.053L203.946 149.057M104.593 176.171C114.134 176.368 119.504 176.479 129.054 176.17C140.205 175.81 146.468 175.429 157.554 174.17C167.761 173.011 183.554 170.17 183.554 170.17L197.054 167.67C197.054 167.67 200.379 157.484 203.054 151.17C203.36 150.447 203.652 149.753 203.935 149.083M268.786 99.2859C263.565 101.537 260.411 102.898 256.054 106.67C252.387 109.845 249.892 112.123 246.554 116.17C245.837 117.039 245.139 117.875 244.455 118.693C241.457 122.283 238.745 125.528 236.054 129.67C233.331 133.86 232.119 136.371 230.534 139.656C229.834 141.106 229.062 142.707 228.054 144.67C224.609 151.38 220 163.67 220 163.67C220 163.67 231.03 162.098 237.054 160.17C243.541 158.094 247.65 156.568 253.554 153.17C260.848 148.973 264.458 145.836 270.523 140.566M270.523 140.566L270.529 140.561M270.523 140.566C270.525 140.564 270.527 140.563 270.529 140.561M321.619 396.221L321.621 396.214M321.619 396.221C321.619 396.219 321.62 396.216 321.621 396.214M348.344 185.408L348.346 185.406C350.471 181.661 352.002 178.965 355.054 175.17C358.688 170.652 361.132 168.422 365.554 164.67C369.604 161.234 372.004 159.411 376.554 156.67C382.091 153.335 385.398 151.642 391.554 149.67C400.549 146.789 407.055 145.423 416.5 145.5C425.364 145.573 430.183 146.271 438.054 149.67C444.021 152.248 447.552 153.982 452.054 158.67C453.065 159.724 454.5 161.5 454.5 161.5C454.5 161.5 456.93 165.323 458 168C458.136 168.34 458.261 168.653 458.376 168.941C459.414 171.535 459.649 172.123 459.771 172.734C459.807 172.913 459.833 173.095 459.867 173.329C459.908 173.612 459.96 173.972 460.054 174.5C460.68 178.026 460.054 183.67 460.054 183.67C458.298 193.983 454.946 200.33 450 208.5C445.682 215.632 432 230.5 432 230.5C432 230.5 423.582 238.522 418 242.67C411.907 247.199 407.797 249.096 401.203 252.14C400.828 252.313 400.445 252.489 400.054 252.67C394.53 255.224 385.56 258.393 385.56 258.393C385.56 258.393 378.549 260.152 374 261C362.84 263.08 345.054 264.67 345.054 264.67C345.054 264.67 343.637 279.31 342.554 288.67C342.208 291.654 341.891 294.451 341.589 297.114L341.589 297.117C339.789 312.988 338.528 324.111 335.054 341.67C332.832 352.897 331.052 359.907 328.569 369.685C328.093 371.562 327.59 373.54 327.054 375.67C324.985 383.887 323.439 389.551 321.621 396.214M348.344 185.408L348.34 185.415M348.344 185.408C348.343 185.41 348.342 185.413 348.34 185.415M203.946 149.057L203.935 149.083M203.946 149.057C203.942 149.066 203.938 149.074 203.935 149.083M408 232.67L408.256 232.531M408 232.67C408.086 232.624 408.171 232.577 408.256 232.531M408 232.67C402.329 235.748 397.926 237.623 392.803 239.803C391.895 240.19 390.965 240.586 390 241C383.595 243.751 375.859 245.545 366.5 247C359.338 248.113 348 248.5 348 248.5C348 248.5 349.056 238.726 350 232.5C350.534 228.977 351.5 223.5 351.5 223.5C351.5 223.5 352.534 217.968 353.5 214.5C354.755 209.996 355.829 207.511 357.5 203.214C359.85 197.172 361.903 193.752 365.032 188.539M408.256 232.531C414.053 229.385 416.499 228.058 422 224C426.45 220.718 430.004 218.02 434.5 213.5C435.183 212.814 435.836 212.165 436.461 211.542M436.509 211.495C441.89 206.145 445.299 202.757 449 194.5C451.533 188.849 452.74 183.46 453.054 179.17C453.284 176.03 453.22 174.095 452.054 171.17C450.887 168.246 448.18 164.085 444 161.5C442.807 160.762 441.863 160.348 440.786 159.895C440.063 159.591 439.227 159.24 438.054 158.67C432.813 156.126 429.372 155.458 423.554 155.17C418.449 154.918 415.603 154.88 410.554 155.67C407.715 156.115 403.42 157.574 403.42 157.574C403.42 157.574 399.152 158.919 396.5 160C395.963 160.219 395.483 160.411 395.044 160.587C392.365 161.66 391.142 162.15 387.054 164.67C376.588 171.123 371.876 177.125 365.554 187.67C365.383 187.955 365.216 188.234 365.051 188.508M436.509 211.495L436.504 211.5M436.509 211.495C436.507 211.497 436.506 211.498 436.504 211.5M365.032 188.539L365.051 188.508M365.032 188.539C365.039 188.529 365.045 188.518 365.051 188.508M436.504 211.5L436.493 211.511M436.504 211.5C436.5 211.504 436.497 211.507 436.493 211.511M436.493 211.511L436.485 211.519M436.493 211.511C436.49 211.514 436.488 211.516 436.485 211.519M436.461 211.542L436.485 211.519M436.461 211.542C436.469 211.534 436.477 211.527 436.485 211.519M514.5 258.5C514.5 399.885 399.885 514.5 258.5 514.5C117.115 514.5 2.5 399.885 2.5 258.5C2.5 117.115 117.115 2.5 258.5 2.5C399.885 2.5 514.5 117.115 514.5 258.5ZM176.554 265.67H155C155 265.67 141.005 265.203 132.5 266.419C120.823 268.087 114.881 269.972 104.554 275.67C96.7229 279.991 86.0537 289.17 86.0537 289.17C86.0537 289.17 77.0622 297.207 73.0537 303.67C68.0413 311.752 66.4651 317.974 65.0537 326.67C63.9207 333.652 65.0537 343.67 65.0537 343.67C65.0537 343.67 66.3454 351.237 68.0537 355.67C68.0537 355.67 70.2394 361.542 73.0537 364.17C77.4334 368.261 82.0056 368.224 87.6829 368.179C88.3475 368.173 89.0273 368.168 89.7237 368.169C96.3686 368.179 105.856 364.286 115 359.17C125.531 353.278 138.554 339.17 138.554 339.17C146.469 330.533 156.554 315.17 156.554 315.17C156.554 315.17 163.51 302.001 167.554 293.17C172.258 282.896 176.554 265.67 176.554 265.67Z" stroke="#FAFAFA" stroke-width="5"/>
</svg>
