<svg width="512" height="512" viewBox="0 0 512 512" fill="none" xmlns="http://www.w3.org/2000/svg">
<circle cx="256" cy="256" r="256" fill="#A0273F"/>
<path d="M173.66 143.28V150.08C165.953 150.307 160.06 151.213 155.98 152.8C152.127 154.16 149.52 156.88 148.16 160.96C146.8 164.813 146.12 170.933 146.12 179.32V352.04C146.12 359.067 146.573 364.28 147.48 367.68C148.613 371.08 150.653 373.347 153.6 374.48C156.773 375.613 161.42 376.18 167.54 376.18H184.2C191.907 376.18 199.16 374.367 205.96 370.74C212.76 367.113 218.88 362.013 224.32 355.44C229.76 348.64 234.293 340.593 237.92 331.3C241.547 322.007 244.267 311.693 246.08 300.36H253.9C253.22 308.067 252.88 318.04 252.88 330.28C252.88 335.493 252.993 343.087 253.22 353.06C253.447 363.033 254.127 373.347 255.26 384C243.7 383.547 230.667 383.32 216.16 383.32C201.653 383.093 188.733 382.98 177.4 382.98C171.733 382.98 164.48 382.98 155.64 382.98C146.8 382.98 137.28 383.093 127.08 383.32C116.88 383.32 106.567 383.433 96.14 383.66C85.7133 383.66 75.8533 383.773 66.56 384V377.2C73.8133 376.747 79.2533 375.84 82.88 374.48C86.5067 373.12 88.8867 370.4 90.02 366.32C91.38 362.24 92.06 356.12 92.06 347.96V179.32C92.06 170.933 91.38 164.813 90.02 160.96C88.8867 156.88 86.3933 154.16 82.54 152.8C78.9133 151.213 73.5867 150.307 66.56 150.08V143.28C72.2267 143.507 79.82 143.733 89.34 143.96C99.0867 144.187 109.4 144.3 120.28 144.3C130.253 144.3 140 144.187 149.52 143.96C159.267 143.733 167.313 143.507 173.66 143.28ZM277.812 143.28C283.478 143.507 291.072 143.733 300.592 143.96C310.338 144.187 319.972 144.3 329.492 144.3C340.372 144.3 350.912 144.187 361.112 143.96C371.312 143.733 378.565 143.62 382.872 143.62C414.378 143.62 437.952 149.853 453.592 162.32C469.232 174.787 477.052 190.88 477.052 210.6C477.052 218.76 475.465 227.373 472.292 236.44C469.118 245.28 463.678 253.553 455.972 261.26C448.492 268.74 438.178 274.86 425.032 279.62C411.885 284.38 395.338 286.76 375.392 286.76H340.712V279.96H371.992C385.365 279.96 395.452 276.9 402.252 270.78C409.278 264.66 414.038 256.613 416.532 246.64C419.252 236.667 420.612 225.9 420.612 214.34C420.612 192.807 417.438 176.713 411.092 166.06C404.745 155.407 393.865 150.08 378.452 150.08C369.612 150.08 363.832 152.007 361.112 155.86C358.618 159.713 357.372 167.533 357.372 179.32V345.92C357.372 354.76 358.278 361.333 360.092 365.64C361.905 369.947 365.418 372.78 370.632 374.14C375.845 375.5 383.552 376.293 393.752 376.52V384C386.725 383.773 377.658 383.547 366.552 383.32C355.445 383.093 343.772 382.98 331.532 382.98C321.785 382.98 312.265 383.093 302.972 383.32C293.678 383.547 285.292 383.773 277.812 384V377.2C285.065 376.747 290.505 375.84 294.132 374.48C297.758 373.12 300.138 370.4 301.272 366.32C302.632 362.24 303.312 356.12 303.312 347.96V179.32C303.312 170.933 302.632 164.813 301.272 160.96C300.138 156.88 297.645 154.16 293.792 152.8C290.165 151.213 284.838 150.307 277.812 150.08V143.28Z" fill="#FAFAFA"/>
</svg>
