<svg width="10" height="12" viewBox="0 0 10 12" fill="none" xmlns="http://www.w3.org/2000/svg">
<path d="M0 10.2891C0 10.2461 0.00390625 10.2168 0.0117188 10.2012C0.015625 10.1855 0.0351562 10.1543 0.0703125 10.1074C0.0976562 10.0723 0.138672 10.0312 0.193359 9.98438C0.220703 9.96094 0.248047 9.93555 0.275391 9.9082C0.283203 9.9082 0.308594 9.90625 0.351562 9.90234C0.390625 9.89844 0.421875 9.89648 0.445312 9.89648C0.5625 9.89648 0.658203 9.92578 0.732422 9.98438C0.806641 10.0469 0.878906 10.1152 0.949219 10.1895C1.01953 10.2637 1.09766 10.3301 1.18359 10.3887C1.26953 10.4512 1.38281 10.4824 1.52344 10.4824H1.69336C1.70508 10.4785 1.72461 10.4668 1.75195 10.4473C1.77539 10.4316 1.80078 10.4141 1.82812 10.3945C1.85547 10.3789 1.88086 10.3613 1.9043 10.3418C1.92773 10.3262 1.94141 10.3164 1.94531 10.3125C1.94531 10.3047 1.95703 10.2969 1.98047 10.2891C2.00391 10.2852 2.01953 10.2832 2.02734 10.2832C2.09375 10.252 2.14844 10.2168 2.19141 10.1777C2.23438 10.1387 2.27344 10.0957 2.30859 10.0488C2.33984 10.002 2.37109 9.95312 2.40234 9.90234C2.42969 9.85156 2.46289 9.79883 2.50195 9.74414C2.50977 9.74023 2.52344 9.72852 2.54297 9.70898C2.55859 9.68945 2.57617 9.66797 2.5957 9.64453C2.61133 9.625 2.62695 9.60352 2.64258 9.58008C2.6582 9.56055 2.66992 9.54688 2.67773 9.53906C2.68555 9.53516 2.69336 9.52344 2.70117 9.50391C2.70508 9.48828 2.70703 9.47656 2.70703 9.46875C2.78516 9.27344 2.86719 9.08594 2.95312 8.90625C3.03906 8.73047 3.12305 8.55078 3.20508 8.36719C3.21289 8.35156 3.22461 8.32227 3.24023 8.2793C3.25586 8.24023 3.27148 8.19727 3.28711 8.15039C3.30664 8.10352 3.32227 8.05859 3.33398 8.01562C3.34961 7.97266 3.35938 7.94141 3.36328 7.92188C3.36328 7.91797 3.36523 7.90625 3.36914 7.88672C3.37305 7.86328 3.37695 7.83984 3.38086 7.81641C3.38477 7.79297 3.38867 7.77148 3.39258 7.75195C3.40039 7.73242 3.4043 7.7207 3.4043 7.7168C3.4082 7.70508 3.41797 7.67969 3.43359 7.64062C3.44922 7.60156 3.46484 7.56055 3.48047 7.51758C3.5 7.4707 3.51758 7.42773 3.5332 7.38867C3.55273 7.34961 3.56445 7.32422 3.56836 7.3125C3.56836 7.30469 3.57422 7.28516 3.58594 7.25391C3.60156 7.21875 3.60938 7.19727 3.60938 7.18945C3.60938 7.17773 3.61523 7.16211 3.62695 7.14258L3.65039 7.10742L3.7207 7.03711C3.74414 6.99414 3.76367 6.95117 3.7793 6.9082C3.79492 6.86523 3.81055 6.82422 3.82617 6.78516C3.8418 6.74219 3.85938 6.70117 3.87891 6.66211C3.90234 6.61914 3.93359 6.57812 3.97266 6.53906C3.97656 6.51562 3.98633 6.47656 4.00195 6.42188C4.01758 6.36328 4.0332 6.30273 4.04883 6.24023C4.06836 6.17383 4.08398 6.11133 4.0957 6.05273C4.11133 5.99414 4.12109 5.95312 4.125 5.92969C4.13281 5.92188 4.14453 5.89844 4.16016 5.85938C4.17969 5.82031 4.19727 5.77734 4.21289 5.73047C4.23242 5.68359 4.25 5.64062 4.26562 5.60156C4.28125 5.5625 4.29297 5.53711 4.30078 5.52539C4.30078 5.52539 4.30273 5.51758 4.30664 5.50195C4.31055 5.48633 4.31445 5.4707 4.31836 5.45508C4.32227 5.43555 4.32422 5.41797 4.32422 5.40234C4.32812 5.38281 4.33008 5.37109 4.33008 5.36719C4.36523 5.26562 4.4082 5.16602 4.45898 5.06836C4.50977 4.9668 4.55078 4.86328 4.58203 4.75781C4.60156 4.6875 4.61133 4.625 4.61133 4.57031C4.61523 4.51172 4.63281 4.44922 4.66406 4.38281C4.66797 4.37891 4.67578 4.36914 4.6875 4.35352C4.69922 4.33398 4.71094 4.3125 4.72266 4.28906C4.73828 4.26562 4.75195 4.24414 4.76367 4.22461C4.77539 4.20117 4.7832 4.18555 4.78711 4.17773C4.79102 4.17383 4.79492 4.16797 4.79883 4.16016C4.80664 4.15234 4.8125 4.14453 4.81641 4.13672C4.82031 4.125 4.82422 4.11523 4.82812 4.10742V3.9668V3.82617C4.78906 3.77148 4.73828 3.74023 4.67578 3.73242C4.61719 3.7207 4.55273 3.71484 4.48242 3.71484H4.30664C4.2832 3.71484 4.25977 3.71484 4.23633 3.71484C4.2168 3.71484 4.19727 3.71094 4.17773 3.70312C4.16992 3.70312 4.1582 3.69922 4.14258 3.69141C4.12695 3.68359 4.10938 3.67383 4.08984 3.66211C4.07422 3.65039 4.05859 3.64062 4.04297 3.63281C4.02734 3.625 4.01758 3.62109 4.01367 3.62109C3.93555 3.59375 3.87305 3.57031 3.82617 3.55078C3.7832 3.53125 3.76172 3.47656 3.76172 3.38672C3.76172 3.37891 3.76172 3.37109 3.76172 3.36328C3.76172 3.35156 3.76367 3.3418 3.76758 3.33398C3.76758 3.32227 3.76953 3.31055 3.77344 3.29883C3.77734 3.28711 3.78711 3.27148 3.80273 3.25195C3.82227 3.23242 3.8418 3.21094 3.86133 3.1875C3.88086 3.16406 3.90039 3.14453 3.91992 3.12891C3.94336 3.10938 3.96094 3.09766 3.97266 3.09375C3.99609 3.09375 4.03711 3.0918 4.0957 3.08789C4.1543 3.08398 4.21484 3.08008 4.27734 3.07617C4.34375 3.07227 4.40625 3.06836 4.46484 3.06445C4.52344 3.06055 4.5625 3.05664 4.58203 3.05273C4.66016 3.04492 4.73438 3.02734 4.80469 3C4.875 2.97266 4.93555 2.92383 4.98633 2.85352C4.99805 2.83789 5.01758 2.80859 5.04492 2.76562C5.07227 2.72266 5.09961 2.67773 5.12695 2.63086C5.1582 2.58398 5.1875 2.53906 5.21484 2.49609C5.24219 2.45312 5.26172 2.42188 5.27344 2.40234C5.32812 2.30078 5.37109 2.20117 5.40234 2.10352C5.43359 2.00195 5.4707 1.90039 5.51367 1.79883C5.52148 1.78711 5.5293 1.77148 5.53711 1.75195C5.54492 1.73242 5.55469 1.7207 5.56641 1.7168C5.56641 1.71289 5.57031 1.70312 5.57812 1.6875C5.58984 1.66797 5.60156 1.65039 5.61328 1.63477C5.62891 1.61523 5.64258 1.59766 5.6543 1.58203C5.66602 1.5625 5.67383 1.54883 5.67773 1.54102C5.68164 1.53711 5.68945 1.51953 5.70117 1.48828C5.71289 1.45703 5.72461 1.42383 5.73633 1.38867C5.75195 1.35352 5.76562 1.32031 5.77734 1.28906C5.78906 1.25781 5.79688 1.23828 5.80078 1.23047C5.80078 1.22266 5.80469 1.20898 5.8125 1.18945C5.82422 1.16602 5.83398 1.14844 5.8418 1.13672C5.85742 1.11719 5.87695 1.08789 5.90039 1.04883C5.92773 1.00977 5.95312 0.970703 5.97656 0.931641C6.00391 0.892578 6.02734 0.859375 6.04688 0.832031C6.06641 0.800781 6.07812 0.785156 6.08203 0.785156C6.15234 0.710937 6.22656 0.644531 6.30469 0.585938C6.38672 0.527344 6.4707 0.474609 6.55664 0.427734C6.64648 0.376953 6.73633 0.328125 6.82617 0.28125C6.91992 0.230469 7.00977 0.177734 7.0957 0.123047C7.10352 0.123047 7.11719 0.113281 7.13672 0.09375C7.16016 0.0742188 7.17773 0.0605469 7.18945 0.0527344C7.18945 0.0449219 7.19922 0.0371094 7.21875 0.0292969C7.23828 0.0175781 7.25195 0.0117188 7.25977 0.0117188C7.2793 0.0117188 7.3125 0.0117188 7.35938 0.0117188C7.40625 0.0078125 7.45508 0.00585938 7.50586 0.00585938C7.55664 0.00585938 7.60352 0.00585938 7.64648 0.00585938C7.69336 0.00195312 7.72656 0 7.74609 0C7.90625 0 8.05664 0.00585938 8.19727 0.0175781C8.3418 0.0253906 8.47852 0.046875 8.60742 0.0820312C8.74023 0.117188 8.86523 0.169922 8.98242 0.240234C9.09961 0.310547 9.21484 0.40625 9.32812 0.527344C9.33203 0.539062 9.33984 0.554688 9.35156 0.574219C9.36719 0.59375 9.38086 0.615234 9.39258 0.638672C9.4082 0.662109 9.41992 0.685547 9.42773 0.708984C9.43945 0.728516 9.44531 0.746094 9.44531 0.761719C9.44531 0.894531 9.41602 1.01367 9.35742 1.11914C9.29883 1.2207 9.19336 1.27148 9.04102 1.27148C8.99414 1.27148 8.95898 1.26367 8.93555 1.24805C8.91602 1.22852 8.89844 1.20508 8.88281 1.17773C8.87109 1.14648 8.85938 1.11523 8.84766 1.08398C8.83984 1.04883 8.82617 1.01562 8.80664 0.984375C8.7168 0.878906 8.62891 0.791016 8.54297 0.720703C8.46094 0.646484 8.35352 0.609375 8.2207 0.609375C8.11914 0.609375 8.03125 0.630859 7.95703 0.673828C7.88672 0.716797 7.80273 0.753906 7.70508 0.785156C7.59961 0.820312 7.49609 0.859375 7.39453 0.902344C7.29688 0.945312 7.19727 1 7.0957 1.06641C7.08789 1.07422 7.07422 1.08594 7.05469 1.10156C7.03906 1.11719 7.02539 1.12891 7.01367 1.13672C6.99805 1.16016 6.97461 1.19727 6.94336 1.24805C6.91211 1.29492 6.87891 1.34375 6.84375 1.39453C6.8125 1.44531 6.78125 1.49414 6.75 1.54102C6.72266 1.58789 6.70312 1.61914 6.69141 1.63477C6.63672 1.73242 6.5957 1.82031 6.56836 1.89844C6.54492 1.97656 6.51758 2.06055 6.48633 2.15039C6.45508 2.26367 6.41797 2.36914 6.375 2.4668C6.33203 2.56055 6.28906 2.6582 6.24609 2.75977V2.78906V2.8125C6.25 2.82812 6.26172 2.85547 6.28125 2.89453C6.30078 2.93359 6.31641 2.95703 6.32812 2.96484C6.33594 2.98438 6.34961 3.00586 6.36914 3.0293C6.38867 3.05273 6.40039 3.06445 6.4043 3.06445H7.25977C7.28711 3.06445 7.31445 3.08008 7.3418 3.11133C7.37305 3.14258 7.40039 3.17969 7.42383 3.22266C7.45117 3.26172 7.47266 3.30273 7.48828 3.3457C7.50391 3.38477 7.51172 3.41602 7.51172 3.43945C7.51172 3.63086 7.41406 3.75977 7.21875 3.82617C7.1875 3.82617 7.13086 3.82422 7.04883 3.82031C6.9668 3.81641 6.88086 3.81445 6.79102 3.81445C6.70117 3.81445 6.61719 3.81641 6.53906 3.82031C6.46094 3.82422 6.40625 3.82617 6.375 3.82617C6.35938 3.82617 6.32031 3.83203 6.25781 3.84375C6.19531 3.85156 6.15039 3.85938 6.12305 3.86719C6.0293 3.88672 5.94336 3.93945 5.86523 4.02539C5.78711 4.10742 5.7168 4.20508 5.6543 4.31836C5.5957 4.42773 5.54688 4.54102 5.50781 4.6582C5.46875 4.77539 5.44336 4.875 5.43164 4.95703V5.19141C5.41211 5.27344 5.38867 5.35156 5.36133 5.42578C5.33789 5.49609 5.31055 5.56641 5.2793 5.63672C5.25195 5.70312 5.22266 5.77148 5.19141 5.8418C5.16016 5.9082 5.13281 5.97852 5.10938 6.05273C5.10938 6.06836 5.10156 6.0957 5.08594 6.13477C5.07422 6.17383 5.06836 6.19727 5.06836 6.20508C5.06836 6.2168 5.06641 6.24023 5.0625 6.27539C5.05859 6.30664 5.05469 6.3418 5.05078 6.38086C5.04688 6.41602 5.04297 6.44922 5.03906 6.48047C5.03516 6.51172 5.03125 6.53125 5.02734 6.53906C5.02344 6.54688 5.01367 6.5625 4.99805 6.58594C4.98242 6.60938 4.96484 6.63477 4.94531 6.66211C4.92578 6.68945 4.9082 6.71484 4.89258 6.73828C4.87695 6.76172 4.86719 6.77734 4.86328 6.78516C4.83984 6.83594 4.82031 6.88477 4.80469 6.93164C4.79297 6.97852 4.78125 7.02734 4.76953 7.07812C4.76172 7.12891 4.75195 7.17969 4.74023 7.23047C4.73242 7.28125 4.7207 7.33594 4.70508 7.39453C4.6582 7.52734 4.59961 7.6582 4.5293 7.78711C4.45898 7.91211 4.39258 8.03711 4.33008 8.16211C4.27539 8.27539 4.22852 8.39062 4.18945 8.50781C4.15039 8.62891 4.10547 8.74609 4.05469 8.85938C4.00391 8.96875 3.96484 9.08008 3.9375 9.19336C3.91016 9.31055 3.86914 9.42578 3.81445 9.53906C3.81055 9.54688 3.80078 9.56055 3.78516 9.58008C3.77344 9.60352 3.75781 9.62695 3.73828 9.65039C3.72266 9.67773 3.70703 9.70312 3.69141 9.72656C3.67578 9.75391 3.66211 9.77344 3.65039 9.78516C3.55273 9.91797 3.46289 10.0527 3.38086 10.1895C3.29883 10.3262 3.20898 10.4609 3.11133 10.5938L3.09961 10.6172C3.0918 10.6289 3.08594 10.6348 3.08203 10.6348C2.96875 10.7363 2.85938 10.8203 2.75391 10.8867C2.64453 10.9531 2.5332 11.0059 2.41992 11.0449C2.30273 11.0879 2.17969 11.1172 2.05078 11.1328C1.92188 11.1523 1.7793 11.1621 1.62305 11.1621H1.58203C1.51953 11.1582 1.43945 11.1543 1.3418 11.1504C1.24414 11.1465 1.14844 11.1426 1.05469 11.1387C0.960938 11.1348 0.878906 11.1309 0.808594 11.127C0.734375 11.123 0.691406 11.1211 0.679688 11.1211C0.585938 11.1133 0.505859 11.0879 0.439453 11.0449C0.369141 11.002 0.308594 10.9473 0.257812 10.8809C0.207031 10.8184 0.164062 10.748 0.128906 10.6699C0.09375 10.5918 0.0644531 10.5137 0.0410156 10.4355C0.0332031 10.4199 0.0253906 10.4062 0.0175781 10.3945C0.00585938 10.3789 0 10.3652 0 10.3535V10.2891Z" fill="white"/>
</svg>
