<svg width="39" height="34" viewBox="0 0 39 34" fill="none" xmlns="http://www.w3.org/2000/svg">
<path d="M33.9022 4.43638C33.0509 3.58472 32.0402 2.90912 30.9277 2.44818C29.8153 1.98725 28.623 1.75 27.4188 1.75C26.2147 1.75 25.0223 1.98725 23.9099 2.44818C22.7975 2.90912 21.7867 3.58472 20.9355 4.43638L19.1688 6.20304L17.4022 4.43638C15.6827 2.71689 13.3505 1.75089 10.9188 1.75089C8.4871 1.75089 6.15497 2.71689 4.43548 4.43638C2.716 6.15586 1.75 8.48799 1.75 10.9197C1.75 13.3514 2.716 15.6836 4.43548 17.403L19.1688 32.1364L33.9022 17.403C34.7538 16.5518 35.4294 15.5411 35.8903 14.4286C36.3513 13.3162 36.5885 12.1239 36.5885 10.9197C36.5885 9.71556 36.3513 8.52322 35.8903 7.41078C35.4294 6.29835 34.7538 5.28764 33.9022 4.43638Z" stroke="white" stroke-width="3.5" stroke-linecap="round" stroke-linejoin="round"/>
</svg>
