<svg width="313" height="249" viewBox="0 0 313 249" fill="none" xmlns="http://www.w3.org/2000/svg">
<path d="M46 16.0399C40.8931 25.8982 38.8668 31.8322 34.5 42.0399C28.6099 55.8084 24.9987 63.4234 20 77.5399C14.4938 93.0897 11.72 101.969 7.99999 118.04C4.29356 134.052 1.82132 143.125 0.999995 159.54C0.648718 166.561 0.5 177.54 0.5 177.54V182.04L0.999995 186.54C0.999995 186.54 6.07107 188.759 9 189.54C11.9289 190.321 16.072 191.755 19 192.54C26.9153 194.661 29.0904 194.898 37 197.04C50.7614 200.767 57.948 202.559 71.5 205.54C87.9944 209.168 97.1724 212.104 114 213.54C128.203 214.752 136.276 214.465 150.5 213.54C156.763 213.133 162.5 213.54 166.5 212.04C170.5 210.54 170.848 209.599 170 207.54C169.401 206.084 166.5 205.54 166.5 205.54C166.5 205.54 165 205.08 158.5 204.04C152 203 123.5 198.54 123.5 198.54L98.5 193.04L74 186.54C74 186.54 65.5 184.04 58.5 182.04C51.5 180.04 46.445 179.488 38 177.54C29.555 175.592 21 176.54 21 176.54C15 176.54 9 179.54 9 179.54L23.5 150.54C23.5 150.54 31.8152 125.439 34.5 118.04C38.7645 106.287 40.1234 99.3149 42.5 87.0399C44.3004 77.7409 44.1938 72.3379 46 63.0399C47.6076 54.7644 48.4855 50.0865 51 42.0399C53.8227 33.007 57.5 25.0399 60 19.5399C62.5 14.0399 63 13.0399 64 10.0399C65 7.03995 65 6.53993 65 6.53993C65 6.53993 65.5 3.53992 62.5 1.53993C59.5 -0.460054 56.5 1.03993 56.5 1.03993C55.5 1.53993 54.931 2.02031 54 3.03995C52.0251 5.20292 49.5 9.53993 49.5 9.53993C49.5 9.53993 47.3261 13.48 46 16.0399Z" fill="#A0273F"/>
<path fill-rule="evenodd" clip-rule="evenodd" d="M182.5 238.04C182.5 238.04 174.917 236.051 170 235.04C162.453 233.488 158.15 232.958 150.5 232.04C140.002 230.78 123.5 229.54 123.5 229.54C123.5 229.54 113.427 228.448 107 227.54C97.7822 226.238 92.6608 225.196 83.5 223.54C76.2644 222.232 72.2976 220.94 65 220.04C60.1396 219.441 54.5 218.04 52 218.04C49.5 218.04 46.396 217.771 42.5 218.04C39.3589 218.257 37 218.04 34.5 220.04C32 222.04 34.5 223.54 34.5 223.54C34.5 223.54 39.3935 225.943 42.5 227.54C45.8404 229.257 47.6761 230.291 51 232.04C55.4829 234.399 65 238.04 65 238.04C65 238.04 74.6159 241.591 81 243.04L81.0438 243.05C88.1257 244.657 92.035 245.544 109 247.54C126 249.54 137 247.54 141.5 247.54C146 247.54 167.5 244.54 172 245.54H185.5H190.5C190.5 245.54 202.167 221.707 203 219.04C203.833 216.373 206.5 207.54 206.5 207.54C206.5 207.54 210.5 187.707 212 179.54C213.5 171.373 213.77 164.296 215 154.54C216.478 142.813 217.374 136.247 219 124.54C220.14 116.334 222 103.54 222 103.54C222 103.54 223.277 96.7721 224.5 92.5399C225.357 89.5739 227 85.0399 227 85.0399C227 85.0399 230.453 92.1183 234 95.5399C237.547 98.9615 247 105.54 262 108.54C277 111.54 284.5 111.04 286 111.04C287.5 111.04 297.066 108.825 302.5 104.54C305.996 101.783 308.154 98.0399 309.5 95.5399C310.846 93.0399 313.5 87.5399 311.5 80.0399C309.5 72.5399 304.5 67.0399 304.5 67.0399C296.5 56.54 283 51.5399 283 51.5399C278.517 49.465 272.063 47.3923 268 46.0399C264.944 45.023 262.5 44.7066 260 44.0399C257.5 43.3733 250 42.0399 250 42.0399C250 42.0399 245.097 41.6275 242 42.0399C237.287 42.6677 232.5 44.0399 230.5 46.0399C228.5 48.0399 224.466 52.8968 222 57.5399C218.8 63.5631 215 73.5399 215 73.5399C213.843 76.0851 213.101 77.47 212 80.0399C209.471 85.944 206.5 95.5399 206.5 95.5399C206.5 95.5399 201.092 109.17 198 118.04C194.829 127.137 192.921 132.216 190.5 141.54C187.997 151.177 186.944 156.689 185.5 166.54C184.446 173.73 184.084 177.797 183.5 185.04C182.903 192.446 182.647 196.611 182.5 204.04C182.411 208.53 182.5 211.049 182.5 215.54V227.54V238.04ZM234 65.5399C234.678 63.189 235.209 61.7071 237 60.0399C238.598 58.5523 239.898 58.1299 242 57.5399C245.008 56.6956 250 57.5399 250 57.5399C250 57.5399 260 58.5399 268 63.0399C268 63.0399 275.333 66.3733 278 68.0399C280.667 69.7066 282.744 71.1737 285.5 73.5399C285.5 73.5399 292.976 79.5499 294 85.0399C294.43 87.3434 294.899 88.8759 294 91.0399C292.993 93.4661 291.5 94.5399 288 95.5399C288 95.5399 280.729 96.2161 275.5 95.5399C269.249 94.7315 267.939 94.6497 262 92.5399C258.037 91.1321 253.715 89.0115 250 87.0399C243.858 83.7807 237.215 78.918 236 76.0399C234.785 73.1619 233.135 68.5419 234 65.5399Z" fill="#A0273F"/>
<path d="M182.5 238.04C182.5 238.04 174.917 236.051 170 235.04C162.453 233.488 158.15 232.958 150.5 232.04C140.002 230.78 123.5 229.54 123.5 229.54C123.5 229.54 113.427 228.448 107 227.54C97.7822 226.238 92.6608 225.196 83.5 223.54C76.2644 222.232 72.2976 220.94 65 220.04C60.1396 219.441 54.5 218.04 52 218.04C49.5 218.04 46.396 217.771 42.5 218.04C39.3589 218.257 37 218.04 34.5 220.04C32 222.04 34.5 223.54 34.5 223.54C34.5 223.54 39.3935 225.943 42.5 227.54C45.8404 229.257 47.6761 230.291 51 232.04C55.4829 234.399 65 238.04 65 238.04C65 238.04 74.6159 241.591 81 243.04M182.5 238.04C182.5 233.939 182.5 231.64 182.5 227.54M182.5 238.04V227.54M81 243.04L81.0438 243.05M81 243.04C81.0146 243.043 81.0292 243.047 81.0438 243.05M172 245.54C167.5 244.54 146 247.54 141.5 247.54C137 247.54 126 249.54 109 247.54C92.035 245.544 88.1257 244.657 81.0438 243.05M172 245.54C172 245.54 183.9 245.54 185.5 245.54M172 245.54H185.5M185.5 245.54C187.1 245.54 190.5 245.54 190.5 245.54M185.5 245.54H190.5M190.5 245.54C190.5 245.54 202.167 221.707 203 219.04C203.833 216.373 206.5 207.54 206.5 207.54C206.5 207.54 210.5 187.707 212 179.54C213.5 171.373 213.77 164.296 215 154.54C216.478 142.813 217.374 136.247 219 124.54C220.14 116.334 222 103.54 222 103.54C222 103.54 223.277 96.7721 224.5 92.5399C225.357 89.5739 227 85.0399 227 85.0399C227 85.0399 230.453 92.1183 234 95.5399C237.547 98.9615 247 105.54 262 108.54C277 111.54 284.5 111.04 286 111.04C287.5 111.04 297.066 108.825 302.5 104.54C305.996 101.783 308.154 98.0399 309.5 95.5399C310.846 93.0399 313.5 87.5399 311.5 80.0399C309.5 72.5399 304.5 67.0399 304.5 67.0399C296.5 56.54 283 51.5399 283 51.5399C278.517 49.465 272.063 47.3923 268 46.0399C264.944 45.023 262.5 44.7066 260 44.0399C257.5 43.3733 250 42.0399 250 42.0399C250 42.0399 245.097 41.6275 242 42.0399C237.287 42.6677 232.5 44.0399 230.5 46.0399C228.5 48.0399 224.466 52.8968 222 57.5399C218.8 63.5631 215 73.5399 215 73.5399C213.843 76.0851 213.101 77.47 212 80.0399C209.471 85.944 206.5 95.5399 206.5 95.5399C206.5 95.5399 201.092 109.17 198 118.04C194.829 127.137 192.921 132.216 190.5 141.54C187.997 151.177 186.944 156.689 185.5 166.54C184.446 173.73 184.084 177.797 183.5 185.04C182.903 192.446 182.647 196.611 182.5 204.04C182.411 208.53 182.5 211.049 182.5 215.54M182.5 215.54C182.5 220.226 182.5 223.439 182.5 227.54M182.5 215.54V227.54M54 3.03995C54.931 2.02031 55.5 1.53993 56.5 1.03993C56.5 1.03993 59.5 -0.460054 62.5 1.53993C65.5 3.53992 65 6.53993 65 6.53993C65 6.53993 65 7.03995 64 10.0399C63 13.0399 62.5 14.0399 60 19.5399C57.5 25.0399 53.8227 33.007 51 42.0399C48.4855 50.0865 47.6076 54.7644 46 63.0399C44.1938 72.3379 44.3004 77.7409 42.5 87.0399C40.1234 99.3149 38.7645 106.287 34.5 118.04C31.8152 125.439 23.5 150.54 23.5 150.54L9 179.54C9 179.54 15 176.54 21 176.54C21 176.54 29.555 175.592 38 177.54C46.445 179.488 51.5 180.04 58.5 182.04C65.5 184.04 74 186.54 74 186.54L98.5 193.04L123.5 198.54C123.5 198.54 152 203 158.5 204.04C165 205.08 166.5 205.54 166.5 205.54C166.5 205.54 169.401 206.084 170 207.54C170.848 209.599 170.5 210.54 166.5 212.04C162.5 213.54 156.763 213.133 150.5 213.54C136.276 214.465 128.203 214.752 114 213.54C97.1724 212.104 87.9944 209.168 71.5 205.54C57.948 202.559 50.7614 200.767 37 197.04C29.0904 194.898 26.9153 194.661 19 192.54C16.072 191.755 11.9289 190.321 9 189.54C6.07107 188.759 0.999995 186.54 0.999995 186.54L0.5 182.04V177.54C0.5 177.54 0.648718 166.561 0.999995 159.54C1.82132 143.125 4.29356 134.052 7.99999 118.04C11.72 101.969 14.4938 93.0897 20 77.5399C24.9987 63.4234 28.6099 55.8084 34.5 42.0399C38.8668 31.8322 40.8931 25.8982 46 16.0399C47.3261 13.48 49.5 9.53993 49.5 9.53993C49.5 9.53993 52.0251 5.20292 54 3.03995ZM237 60.0399C235.209 61.7071 234.678 63.189 234 65.5399C233.135 68.5419 234.785 73.1619 236 76.0399C237.215 78.918 243.858 83.7807 250 87.0399C253.715 89.0115 258.037 91.1321 262 92.5399C267.939 94.6497 269.249 94.7315 275.5 95.5399C280.729 96.2161 288 95.5399 288 95.5399C291.5 94.5399 292.993 93.4661 294 91.0399C294.899 88.8759 294.43 87.3434 294 85.0399C292.976 79.5499 285.5 73.5399 285.5 73.5399C282.744 71.1737 280.667 69.7066 278 68.0399C275.333 66.3733 268 63.0399 268 63.0399C260 58.5399 250 57.5399 250 57.5399C250 57.5399 245.008 56.6956 242 57.5399C239.898 58.1299 238.598 58.5523 237 60.0399Z" stroke="#A0273F"/>
<path d="M75.456 126.144V127.384C74.6707 127.549 73.8853 128.066 73.1 128.934C72.3147 129.761 71.4467 131.083 70.496 132.902L57.972 157.702H56.918L42.41 130.918C41.5833 129.389 40.8807 128.438 40.302 128.066C39.7647 127.653 39.2687 127.446 38.814 127.446V126.144C39.6407 126.185 40.488 126.227 41.356 126.268C42.2653 126.309 43.2367 126.33 44.27 126.33C45.634 126.33 47.0807 126.33 48.61 126.33C50.1807 126.289 51.6273 126.227 52.95 126.144V127.446C51.9167 127.446 51.0073 127.57 50.222 127.818C49.4367 128.066 48.92 128.521 48.672 129.182C48.424 129.843 48.61 130.773 49.23 131.972L59.708 152.06L59.212 152.432L67.458 136.002C68.6153 133.729 69.1733 131.972 69.132 130.732C69.132 129.492 68.6567 128.645 67.706 128.19C66.7553 127.694 65.412 127.425 63.676 127.384V126.144C64.8747 126.185 66.094 126.227 67.334 126.268C68.574 126.309 69.7313 126.33 70.806 126.33C71.8807 126.33 72.7693 126.309 73.472 126.268C74.1747 126.227 74.836 126.185 75.456 126.144ZM60.762 151.192V163.468C60.762 164.956 60.886 166.072 61.134 166.816C61.382 167.56 61.8573 168.056 62.56 168.304C63.304 168.552 64.3787 168.717 65.784 168.8V170.04C64.8333 169.957 63.6347 169.916 62.188 169.916C60.7827 169.875 59.3567 169.854 57.91 169.854C56.298 169.854 54.7893 169.875 53.384 169.916C51.9787 169.916 50.842 169.957 49.974 170.04V168.8C51.3793 168.717 52.4333 168.552 53.136 168.304C53.88 168.056 54.376 167.56 54.624 166.816C54.872 166.072 54.996 164.956 54.996 163.468V150.758L58.344 154.602L60.762 151.192ZM78.8549 126.144C79.7229 126.185 80.8595 126.227 82.2649 126.268C83.6702 126.309 85.0549 126.33 86.4189 126.33C88.3615 126.33 90.2215 126.309 91.9989 126.268C93.7762 126.227 95.0369 126.206 95.7809 126.206C99.1289 126.206 101.898 126.681 104.089 127.632C106.321 128.583 107.974 129.885 109.049 131.538C110.165 133.15 110.723 134.969 110.723 136.994C110.723 138.234 110.475 139.557 109.979 140.962C109.483 142.367 108.615 143.69 107.375 144.93C106.176 146.17 104.523 147.203 102.415 148.03C100.307 148.815 97.6409 149.208 94.4169 149.208H88.4649V147.968H93.7969C96.7315 147.968 98.9635 147.513 100.493 146.604C102.064 145.653 103.118 144.413 103.655 142.884C104.234 141.313 104.523 139.577 104.523 137.676C104.523 134.411 103.738 131.889 102.167 130.112C100.638 128.293 97.9922 127.384 94.2309 127.384C92.3295 127.384 91.0895 127.735 90.5109 128.438C89.9322 129.141 89.6429 130.567 89.6429 132.716V163.468C89.6429 164.956 89.7669 166.072 90.0149 166.816C90.2629 167.56 90.7382 168.056 91.4409 168.304C92.1849 168.552 93.2595 168.717 94.6649 168.8V170.04C93.7142 169.957 92.5155 169.916 91.0689 169.916C89.6635 169.875 88.2375 169.854 86.7909 169.854C85.1789 169.854 83.6702 169.875 82.2649 169.916C80.8595 169.916 79.7229 169.957 78.8549 170.04V168.8C80.2602 168.717 81.3142 168.552 82.0169 168.304C82.7609 168.056 83.2569 167.56 83.5049 166.816C83.7529 166.072 83.8769 164.956 83.8769 163.468V132.716C83.8769 131.187 83.7529 130.071 83.5049 129.368C83.2569 128.624 82.7609 128.128 82.0169 127.88C81.3142 127.591 80.2602 127.425 78.8549 127.384V126.144ZM88.7129 148.154C90.9449 148.237 92.7015 148.34 93.9829 148.464C95.2642 148.547 96.2975 148.629 97.0829 148.712C97.9095 148.795 98.6949 148.898 99.4389 149.022C102.208 149.477 104.192 150.324 105.391 151.564C106.631 152.763 107.54 154.643 108.119 157.206L109.669 163.53C110.082 165.349 110.496 166.671 110.909 167.498C111.364 168.283 112.046 168.655 112.955 168.614C113.658 168.573 114.236 168.345 114.691 167.932C115.187 167.519 115.704 166.961 116.241 166.258L117.171 166.94C116.303 168.221 115.394 169.213 114.443 169.916C113.534 170.577 112.232 170.908 110.537 170.908C109.008 170.908 107.664 170.453 106.507 169.544C105.35 168.635 104.482 166.857 103.903 164.212L102.539 158.012C102.167 156.235 101.733 154.705 101.237 153.424C100.782 152.101 100.121 151.068 99.2529 150.324C98.4262 149.58 97.1862 149.208 95.5329 149.208H88.8369L88.7129 148.154ZM135.488 126.144V127.384C134.083 127.425 133.008 127.591 132.264 127.88C131.561 128.128 131.086 128.624 130.838 129.368C130.59 130.071 130.466 131.187 130.466 132.716V163.468C130.466 164.956 130.59 166.072 130.838 166.816C131.086 167.56 131.561 168.056 132.264 168.304C133.008 168.552 134.083 168.717 135.488 168.8V170.04C134.537 169.957 133.339 169.916 131.892 169.916C130.487 169.875 129.061 169.854 127.614 169.854C126.002 169.854 124.493 169.875 123.088 169.916C121.683 169.916 120.546 169.957 119.678 170.04V168.8C121.083 168.717 122.137 168.552 122.84 168.304C123.584 168.056 124.08 167.56 124.328 166.816C124.576 166.072 124.7 164.956 124.7 163.468V132.716C124.7 131.187 124.576 130.071 124.328 129.368C124.08 128.624 123.584 128.128 122.84 127.88C122.137 127.591 121.083 127.425 119.678 127.384V126.144C120.546 126.185 121.683 126.227 123.088 126.268C124.493 126.309 126.002 126.33 127.614 126.33C129.061 126.33 130.487 126.309 131.892 126.268C133.339 126.227 134.537 126.185 135.488 126.144ZM161.221 125.276C163.949 125.276 166.181 125.689 167.917 126.516C169.695 127.301 171.265 128.231 172.629 129.306C173.456 129.926 174.076 130.009 174.489 129.554C174.944 129.058 175.254 127.921 175.419 126.144H176.845C176.763 127.673 176.701 129.533 176.659 131.724C176.618 133.915 176.597 136.808 176.597 140.404H175.171C174.882 138.627 174.613 137.221 174.365 136.188C174.117 135.113 173.807 134.204 173.435 133.46C173.105 132.716 172.65 131.972 172.071 131.228C170.79 129.533 169.178 128.314 167.235 127.57C165.293 126.785 163.247 126.392 161.097 126.392C159.072 126.392 157.233 126.909 155.579 127.942C153.967 128.934 152.562 130.381 151.363 132.282C150.206 134.183 149.297 136.477 148.635 139.164C148.015 141.851 147.705 144.868 147.705 148.216C147.705 151.688 148.057 154.767 148.759 157.454C149.462 160.099 150.433 162.331 151.673 164.15C152.955 165.969 154.443 167.353 156.137 168.304C157.873 169.213 159.733 169.668 161.717 169.668C163.577 169.668 165.52 169.296 167.545 168.552C169.571 167.808 171.162 166.609 172.319 164.956C173.229 163.757 173.849 162.455 174.179 161.05C174.551 159.645 174.882 157.681 175.171 155.16H176.597C176.597 158.921 176.618 161.959 176.659 164.274C176.701 166.547 176.763 168.469 176.845 170.04H175.419C175.254 168.263 174.965 167.147 174.551 166.692C174.179 166.237 173.539 166.299 172.629 166.878C171.1 167.953 169.467 168.903 167.731 169.73C166.037 170.515 163.846 170.908 161.159 170.908C157.233 170.908 153.781 170.019 150.805 168.242C147.871 166.465 145.577 163.902 143.923 160.554C142.311 157.206 141.505 153.176 141.505 148.464C141.505 143.835 142.353 139.784 144.047 136.312C145.742 132.84 148.057 130.133 150.991 128.19C153.967 126.247 157.377 125.276 161.221 125.276Z" fill="#A0273F"/>
<path d="M241.414 126.144V127.384C240.009 127.425 238.934 127.591 238.19 127.88C237.487 128.128 237.012 128.624 236.764 129.368C236.516 130.071 236.392 131.187 236.392 132.716V163.468C236.392 164.956 236.516 166.072 236.764 166.816C237.012 167.56 237.487 168.056 238.19 168.304C238.934 168.552 240.009 168.717 241.414 168.8V170.04C240.463 169.957 239.265 169.916 237.818 169.916C236.413 169.875 234.987 169.854 233.54 169.854C231.928 169.854 230.419 169.875 229.014 169.916C227.609 169.916 226.472 169.957 225.604 170.04V168.8C227.009 168.717 228.063 168.552 228.766 168.304C229.51 168.056 230.006 167.56 230.254 166.816C230.502 166.072 230.626 164.956 230.626 163.468V132.716C230.626 131.187 230.502 130.071 230.254 129.368C230.006 128.624 229.51 128.128 228.766 127.88C228.063 127.591 227.009 127.425 225.604 127.384V126.144C226.472 126.185 227.609 126.227 229.014 126.268C230.419 126.309 231.928 126.33 233.54 126.33C234.987 126.33 236.413 126.309 237.818 126.268C239.265 126.227 240.463 126.185 241.414 126.144ZM267.147 125.276C269.875 125.276 272.107 125.689 273.843 126.516C275.621 127.301 277.191 128.231 278.555 129.306C279.382 129.926 280.002 130.009 280.415 129.554C280.87 129.058 281.18 127.921 281.345 126.144H282.771C282.689 127.673 282.627 129.533 282.585 131.724C282.544 133.915 282.523 136.808 282.523 140.404H281.097C280.808 138.627 280.539 137.221 280.291 136.188C280.043 135.113 279.733 134.204 279.361 133.46C279.031 132.716 278.576 131.972 277.997 131.228C276.716 129.533 275.104 128.314 273.161 127.57C271.219 126.785 269.173 126.392 267.023 126.392C264.998 126.392 263.159 126.909 261.505 127.942C259.893 128.934 258.488 130.381 257.289 132.282C256.132 134.183 255.223 136.477 254.561 139.164C253.941 141.851 253.631 144.868 253.631 148.216C253.631 151.688 253.983 154.767 254.685 157.454C255.388 160.099 256.359 162.331 257.599 164.15C258.881 165.969 260.369 167.353 262.063 168.304C263.799 169.213 265.659 169.668 267.643 169.668C269.503 169.668 271.446 169.296 273.471 168.552C275.497 167.808 277.088 166.609 278.245 164.956C279.155 163.757 279.775 162.455 280.105 161.05C280.477 159.645 280.808 157.681 281.097 155.16H282.523C282.523 158.921 282.544 161.959 282.585 164.274C282.627 166.547 282.689 168.469 282.771 170.04H281.345C281.18 168.263 280.891 167.147 280.477 166.692C280.105 166.237 279.465 166.299 278.555 166.878C277.026 167.953 275.393 168.903 273.657 169.73C271.963 170.515 269.772 170.908 267.085 170.908C263.159 170.908 259.707 170.019 256.731 168.242C253.797 166.465 251.503 163.902 249.849 160.554C248.237 157.206 247.431 153.176 247.431 148.464C247.431 143.835 248.279 139.784 249.973 136.312C251.668 132.84 253.983 130.133 256.917 128.19C259.893 126.247 263.303 125.276 267.147 125.276Z" fill="#A0273F"/>
</svg>
