<svg width="467" height="347" viewBox="0 0 467 347" fill="none" xmlns="http://www.w3.org/2000/svg">
<path fill-rule="evenodd" clip-rule="evenodd" d="M19.5537 94.6704C19.7284 92.8366 22.0537 90.6704 22.0537 90.6704L33.0537 90.1704C33.0537 90.1704 42.1939 90.5493 48.0537 90.6704L48.0929 90.6712C57.6342 90.8684 63.004 90.9794 72.5537 90.6704C83.7052 90.3096 89.9676 89.9292 101.054 88.6704C111.261 87.5114 127.054 84.6704 127.054 84.6704L140.554 82.1704C140.554 82.1704 143.879 71.9836 146.554 65.6704C146.86 64.9475 147.153 64.2532 147.435 63.5827L147.446 63.5575L147.448 63.5526C150.142 57.1563 151.923 52.9288 156.054 46.6704C159.346 41.6821 161.828 38.7569 165.554 34.6704C170.023 29.7686 177.054 22.1704 177.054 22.1704C177.054 22.1704 185.315 14.0565 191.554 10.1704C198.757 5.6836 203.167 2.96703 211.554 1.67042C212.881 1.46528 214.133 1.22544 215.349 0.992565C218.907 0.311077 222.154 -0.31084 226.054 0.170441C232.496 0.965459 236.575 1.47255 241.054 6.17042C244.256 9.52969 244.981 12.5646 245.554 17.1704C246.216 22.4911 243.054 30.6704 243.054 30.6704C243.054 30.6704 237.551 41.7102 233.054 48.1704C228.226 55.1061 225.281 58.9574 219.054 64.6704C212.364 70.8083 207.768 73.4495 200.026 77.899L199.554 78.1704C192.057 82.4796 187.735 84.8715 179.554 87.6704C172.159 90.2002 160.054 92.1704 160.054 92.1704C160.054 92.1704 157.568 104.351 156.054 112.17C155.125 116.963 154.444 120.809 153.777 124.569C152.979 129.068 152.204 133.443 151.054 139.17C149.048 149.158 146.554 166.67 146.554 166.67C146.554 166.67 161.774 166.042 171.554 166.17C179.58 166.276 184.033 166.361 192.054 166.67C197.875 166.895 202.042 166.828 206.702 166.754C209.227 166.713 211.897 166.67 215.054 166.67H280.054H298.554H321.054L334.554 165.17C334.554 165.17 335.553 160.867 336.054 157.17C336.907 150.871 337.655 147.372 339.054 141.17C339.94 137.244 340.459 135.044 341.554 131.17L341.658 130.803C343.559 124.077 344.668 120.153 347.554 113.67C349.614 109.043 351.027 106.561 353.554 102.17C354.014 101.371 354.438 100.624 354.84 99.9152L354.844 99.908L354.846 99.9057C356.971 96.1612 358.502 93.4651 361.554 89.6704C365.188 85.1515 367.632 82.9224 372.054 79.1704C376.104 75.7337 378.504 73.9111 383.054 71.1704C388.591 67.835 391.898 66.1423 398.054 64.1704C407.049 61.2892 413.555 59.9226 423 60C431.864 60.0727 436.683 60.7711 444.554 64.1704C450.521 66.7475 454.052 68.4821 458.554 73.1704C459.565 74.2241 461 76 461 76C461 76 463.43 79.8228 464.5 82.5C464.636 82.8403 464.761 83.1531 464.876 83.4412C465.914 86.0348 466.149 86.6231 466.271 87.2342C466.307 87.4135 466.333 87.5947 466.367 87.8291C466.408 88.112 466.46 88.4723 466.554 89C467.18 92.5261 466.554 98.1704 466.554 98.1704C464.798 108.483 461.446 114.83 456.5 123C452.182 130.132 438.5 145 438.5 145C438.5 145 430.082 153.022 424.5 157.17C418.407 161.699 414.297 163.596 407.703 166.64C407.328 166.813 406.945 166.989 406.554 167.17C401.03 169.724 392.06 172.893 392.06 172.893C392.06 172.893 385.049 174.652 380.5 175.5C369.34 177.58 351.554 179.17 351.554 179.17C351.554 179.17 350.137 193.81 349.054 203.17C348.708 206.154 348.391 208.951 348.089 211.614L348.089 211.617C346.289 227.488 345.028 238.611 341.554 256.17C339.332 267.397 337.552 274.407 335.069 284.185C334.593 286.062 334.09 288.04 333.554 290.17C331.485 298.387 329.939 304.051 328.121 310.714L328.119 310.721L328.118 310.724L328.116 310.729C327.334 313.597 326.501 316.65 325.554 320.17C323.032 329.547 319.054 344.17 319.054 344.17C319.054 344.17 316.8 346.17 315.054 346.17C313.307 346.17 311.054 344.17 311.054 344.17C311.054 344.17 311.853 336.537 312.554 331.67C312.972 328.771 313.395 326.536 313.821 324.289C314.231 322.129 314.643 319.957 315.054 317.17C315.862 311.689 316.234 307.657 316.637 303.287L316.637 303.286C316.891 300.531 317.158 297.642 317.554 294.17C318.49 285.965 319.049 281.368 320.054 273.17C320.692 267.964 321.227 263.87 321.757 259.811C322.321 255.491 322.88 251.211 323.554 245.67C324.357 239.065 324.925 233.856 325.488 228.693L325.488 228.688L325.489 228.685C326.09 223.176 326.685 217.717 327.554 210.67C329.024 198.748 331.554 180.17 331.554 180.17C331.554 180.17 317.854 181.341 309.054 181.67C301.714 181.945 296.46 181.864 290.584 181.772C287.4 181.723 284.034 181.67 280.054 181.67H211.054C208.446 181.67 206.241 181.693 204.155 181.714C200.306 181.753 196.865 181.787 192.054 181.67C186.896 181.545 182.897 181.232 178.881 180.919C174.98 180.614 171.063 180.307 166.054 180.17C156.88 179.92 143.5 180.17 143.5 180.17C143.5 180.17 140.861 190.336 139.054 196.67C136.099 207.027 128.554 222.17 128.554 222.17C128.554 222.17 117.581 240.255 108.054 249.67C105.29 252.402 103.359 254.368 101.831 255.924C98.0924 259.731 96.7673 261.081 91.554 265.17C84.2102 270.932 71.0537 278.67 71.0537 278.67C71.0537 278.67 57.0537 285.67 46.5537 288.17C36.0537 290.67 25.5537 290.17 25.5537 290.17C25.5537 290.17 16.0305 288.867 11.5537 285.17C7.1987 281.575 5.866 278.684 3.60811 273.788L3.55384 273.67C0.231721 266.467 0 253.67 0 253.67C0 253.67 0.240097 243.414 1.5 237C2.67881 230.999 3.77192 227.695 6 222C8.9408 214.483 11.6028 210.282 16.5537 203.67C21.7683 196.707 25.438 193.32 32.0537 187.67C37.9055 182.674 41.356 179.959 48.0537 176.17C56.9859 171.118 60.9476 169.952 71.0537 168.17C79.6112 166.662 86.1486 166.665 94.6096 166.67C95.0847 166.67 95.5658 166.67 96.0537 166.67H124.554C124.554 166.67 127.124 155.423 128.554 148.17C129.862 141.534 130.627 136.519 131.427 131.272C132.033 127.305 132.658 123.205 133.554 118.17C135.05 109.762 137.554 96.6704 137.554 96.6704C137.554 96.6704 119.974 100.212 108.554 101.17C94.9333 102.314 86.6248 102.687 72.5537 102.67C59.5111 102.655 52.2751 102.166 39.4744 101.3L37.5537 101.17C31.4861 100.761 22.0537 99.6704 22.0537 99.6704C22.0537 99.6704 19.3468 96.8437 19.5537 94.6704ZM163.5 78.1704C163.5 78.1704 168.109 65.8803 171.554 59.1704C172.562 57.2072 173.334 55.606 174.034 54.1556C175.619 50.8713 176.831 48.3602 179.554 44.1704C182.245 40.0285 184.957 36.7828 187.955 33.1934C188.639 32.3751 189.337 31.5391 190.054 30.6704C193.392 26.623 195.887 24.3454 199.554 21.1704C203.911 17.3978 207.065 16.0374 212.286 13.7859L212.554 13.6704C212.98 13.4864 213.387 13.3092 213.779 13.1385L213.787 13.1348C217.035 11.7192 219.244 10.7565 223.054 10.1704C223.864 10.0457 224.622 9.89485 225.346 9.75076C228.068 9.20858 230.308 8.76257 233.054 10.1704C234.901 11.1176 236.053 11.852 237.054 13.6704C238.466 16.2363 237.873 20.1526 237.054 24.1704C236.25 28.1147 235.065 30.1834 233.054 33.6704C231.347 36.629 229.835 38.3465 227.923 40.5183C227.343 41.178 226.725 41.8795 226.054 42.6704C222.033 47.409 219.747 50.097 215.054 54.1704C214.704 54.4741 214.363 54.7707 214.029 55.0608L214.023 55.0659C207.958 60.336 204.348 63.4725 197.054 67.6704C191.15 71.0682 187.041 72.5943 180.554 74.6704C174.53 76.5979 163.5 78.1704 163.5 78.1704ZM120.054 180.17H98.5C98.5 180.17 84.5051 179.703 76 180.919C64.3235 182.587 58.3811 184.472 48.0537 190.17C40.223 194.491 29.5537 203.67 29.5537 203.67C29.5537 203.67 20.5622 211.707 16.5537 218.17C11.5413 226.252 9.96515 232.474 8.55373 241.17C7.42072 248.152 8.55373 258.17 8.55373 258.17C8.55373 258.17 9.84537 265.737 11.5537 270.17C11.5537 270.17 13.7394 276.042 16.5537 278.67C20.9334 282.761 25.5056 282.724 31.1829 282.679C31.8475 282.673 32.5273 282.668 33.2237 282.669C39.8686 282.679 49.356 278.786 58.5 273.67C69.0308 267.778 82.0537 253.67 82.0537 253.67C89.9693 245.033 100.054 229.67 100.054 229.67C100.054 229.67 107.01 216.501 111.054 207.67C115.759 197.397 120.054 180.17 120.054 180.17ZM356.5 147C355.556 153.226 354.5 163 354.5 163C354.5 163 365.838 162.613 373 161.5C382.359 160.045 390.095 158.251 396.5 155.5C397.465 155.086 398.395 154.69 399.303 154.303C404.426 152.123 408.829 150.248 414.5 147.17L414.756 147.031C420.553 143.885 422.999 142.558 428.5 138.5C432.95 135.218 436.504 132.52 441 128C441.683 127.314 442.336 126.665 442.961 126.042L442.985 126.019L442.993 126.011L443.004 126L443.009 125.995C448.39 120.645 451.799 117.257 455.5 109C458.033 103.349 459.24 97.9598 459.554 93.6704C459.784 90.5303 459.72 88.5949 458.554 85.6704C457.387 82.746 454.68 78.5846 450.5 76C449.307 75.2621 448.363 74.8478 447.286 74.3949C446.563 74.0913 445.727 73.74 444.554 73.1704C439.313 70.6263 435.872 69.9579 430.054 69.6704C424.949 69.4182 422.103 69.3802 417.054 70.1704C414.215 70.6148 409.92 72.0745 409.92 72.0745C409.92 72.0745 405.652 73.4187 403 74.5C402.463 74.7192 401.983 74.911 401.544 75.0872C398.865 76.16 397.642 76.6498 393.554 79.1704C383.088 85.6232 378.376 91.6253 372.054 102.17C371.883 102.455 371.716 102.734 371.551 103.008L371.532 103.039C368.403 108.252 366.35 111.672 364 117.714C362.329 122.011 361.255 124.496 360 129C359.034 132.468 358 138 358 138C358 138 357.034 143.477 356.5 147Z" fill="currentColor"/>
<path d="M204.19 112.37V113.77C203.163 114.19 202.113 115.03 201.04 116.29C199.967 117.503 198.777 119.37 197.47 121.89L184.24 148.07H180.95L164.57 117.76C163.73 116.173 162.96 115.123 162.26 114.61C161.607 114.097 161.023 113.84 160.51 113.84V112.37C161.77 112.51 163.053 112.603 164.36 112.65C165.713 112.697 167.183 112.72 168.77 112.72C170.823 112.72 173.04 112.697 175.42 112.65C177.8 112.557 179.97 112.463 181.93 112.37V113.84C180.763 113.84 179.713 113.933 178.78 114.12C177.847 114.307 177.193 114.657 176.82 115.17C176.447 115.637 176.54 116.407 177.1 117.48L188.16 138.76L185.99 141.56L193.2 127.07C194.927 123.71 195.837 121.073 195.93 119.16C196.07 117.247 195.603 115.893 194.53 115.1C193.503 114.26 192.033 113.817 190.12 113.77V112.37C191.707 112.417 193.2 112.463 194.6 112.51C196 112.557 197.423 112.58 198.87 112.58C199.897 112.58 200.853 112.557 201.74 112.51C202.673 112.463 203.49 112.417 204.19 112.37ZM189.21 137.01V154.58C189.21 156.26 189.327 157.52 189.56 158.36C189.84 159.2 190.353 159.76 191.1 160.04C191.847 160.32 192.967 160.507 194.46 160.6V162C193.2 161.907 191.567 161.86 189.56 161.86C187.6 161.813 185.64 161.79 183.68 161.79C181.487 161.79 179.41 161.813 177.45 161.86C175.49 161.86 173.95 161.907 172.83 162V160.6C174.323 160.507 175.443 160.32 176.19 160.04C176.937 159.76 177.427 159.2 177.66 158.36C177.94 157.52 178.08 156.26 178.08 154.58V140.23L184.17 144.57L189.21 137.01Z" fill="currentColor"/>
<path d="M208.743 112.44C209.91 112.487 211.473 112.533 213.433 112.58C215.44 112.627 217.423 112.65 219.383 112.65C221.623 112.65 223.793 112.627 225.893 112.58C227.993 112.533 229.487 112.51 230.373 112.51C234.713 112.51 238.307 113 241.153 113.98C244.047 114.913 246.193 116.29 247.593 118.11C249.04 119.93 249.763 122.123 249.763 124.69C249.763 126.277 249.437 127.887 248.783 129.52C248.13 131.107 247.01 132.6 245.423 134C243.883 135.353 241.76 136.45 239.053 137.29C236.347 138.083 232.94 138.48 228.833 138.48H222.113V137.08H228.133C230.887 137.08 232.963 136.567 234.363 135.54C235.81 134.467 236.79 133.067 237.303 131.34C237.863 129.567 238.143 127.607 238.143 125.46C238.143 121.773 237.49 118.927 236.183 116.92C234.877 114.867 232.637 113.84 229.463 113.84C227.643 113.84 226.453 114.237 225.893 115.03C225.38 115.823 225.123 117.433 225.123 119.86V154.58C225.123 156.26 225.24 157.52 225.473 158.36C225.753 159.2 226.267 159.76 227.013 160.04C227.76 160.32 228.88 160.507 230.373 160.6V162C229.113 161.907 227.527 161.86 225.613 161.86C223.7 161.813 221.763 161.79 219.803 161.79C217.563 161.79 215.44 161.813 213.433 161.86C211.473 161.86 209.91 161.907 208.743 162V160.6C210.237 160.507 211.357 160.32 212.103 160.04C212.85 159.76 213.34 159.2 213.573 158.36C213.853 157.52 213.993 156.26 213.993 154.58V119.86C213.993 118.133 213.853 116.873 213.573 116.08C213.34 115.24 212.827 114.68 212.033 114.4C211.287 114.073 210.19 113.887 208.743 113.84V112.44ZM221.973 137.29C223.98 137.337 225.707 137.43 227.153 137.57C228.647 137.71 229.953 137.85 231.073 137.99C232.193 138.083 233.197 138.153 234.083 138.2C238.33 138.573 241.457 139.483 243.463 140.93C245.517 142.377 246.847 144.547 247.453 147.44L249.063 154.65C249.483 156.517 249.927 157.823 250.393 158.57C250.86 159.317 251.537 159.69 252.423 159.69C253.03 159.643 253.52 159.503 253.893 159.27C254.313 158.99 254.757 158.593 255.223 158.08L256.203 158.92C254.943 160.367 253.59 161.393 252.143 162C250.697 162.653 248.947 162.98 246.893 162.98C244.373 162.98 242.297 162.443 240.663 161.37C239.03 160.297 237.957 158.313 237.443 155.42L236.183 148.42C235.857 146.46 235.46 144.757 234.993 143.31C234.527 141.817 233.873 140.65 233.033 139.81C232.24 138.923 231.12 138.48 229.673 138.48H222.113L221.973 137.29Z" fill="currentColor"/>
<path d="M280.59 112.44V113.84C279.097 113.887 277.953 114.073 277.16 114.4C276.413 114.68 275.923 115.24 275.69 116.08C275.457 116.873 275.34 118.133 275.34 119.86V154.58C275.34 156.26 275.457 157.52 275.69 158.36C275.97 159.2 276.483 159.76 277.23 160.04C277.977 160.32 279.097 160.507 280.59 160.6V162C279.33 161.907 277.743 161.86 275.83 161.86C273.917 161.813 271.98 161.79 270.02 161.79C267.733 161.79 265.61 161.813 263.65 161.86C261.737 161.86 260.173 161.907 258.96 162V160.6C260.453 160.507 261.573 160.32 262.32 160.04C263.067 159.76 263.557 159.2 263.79 158.36C264.07 157.52 264.21 156.26 264.21 154.58V119.86C264.21 118.133 264.07 116.873 263.79 116.08C263.557 115.24 263.043 114.68 262.25 114.4C261.503 114.073 260.407 113.887 258.96 113.84V112.44C260.173 112.487 261.737 112.533 263.65 112.58C265.61 112.627 267.733 112.65 270.02 112.65C271.98 112.65 273.917 112.627 275.83 112.58C277.743 112.533 279.33 112.487 280.59 112.44Z" fill="currentColor"/>
<path d="M311.892 111.46C314.972 111.46 317.492 111.927 319.452 112.86C321.458 113.747 323.232 114.797 324.772 116.01C325.705 116.71 326.405 116.803 326.872 116.29C327.385 115.73 327.735 114.447 327.922 112.44H329.532C329.438 114.26 329.368 116.477 329.322 119.09C329.275 121.657 329.252 125.087 329.252 129.38H327.642C327.408 127.233 327.105 125.413 326.732 123.92C326.358 122.38 325.845 121.027 325.192 119.86C324.538 118.693 323.605 117.643 322.392 116.71C321.225 115.543 319.872 114.68 318.332 114.12C316.792 113.56 315.182 113.28 313.502 113.28C310.982 113.28 308.835 113.957 307.062 115.31C305.288 116.617 303.842 118.413 302.722 120.7C301.648 122.987 300.855 125.577 300.342 128.47C299.828 131.317 299.572 134.28 299.572 137.36C299.572 140.487 299.828 143.497 300.342 146.39C300.902 149.237 301.742 151.78 302.862 154.02C304.028 156.26 305.522 158.033 307.342 159.34C309.162 160.647 311.308 161.3 313.782 161.3C315.322 161.3 316.862 161.02 318.402 160.46C319.988 159.853 321.342 158.99 322.462 157.87C324.282 156.47 325.518 154.743 326.172 152.69C326.825 150.59 327.315 147.813 327.642 144.36H329.252C329.252 148.793 329.275 152.387 329.322 155.14C329.368 157.847 329.438 160.133 329.532 162H327.922C327.735 159.993 327.408 158.733 326.942 158.22C326.522 157.707 325.798 157.777 324.772 158.43C323.045 159.643 321.202 160.717 319.242 161.65C317.328 162.537 314.855 162.98 311.822 162.98C306.875 162.98 302.535 161.977 298.802 159.97C295.115 157.963 292.245 155.07 290.192 151.29C288.138 147.51 287.112 142.96 287.112 137.64C287.112 132.413 288.162 127.84 290.262 123.92C292.408 120 295.325 116.943 299.012 114.75C302.745 112.557 307.038 111.46 311.892 111.46Z" fill="currentColor"/>
<path d="M378.01 184.44V185.84C376.517 185.887 375.373 186.073 374.58 186.4C373.833 186.68 373.343 187.24 373.11 188.08C372.877 188.873 372.76 190.133 372.76 191.86V226.58C372.76 228.26 372.877 229.52 373.11 230.36C373.39 231.2 373.903 231.76 374.65 232.04C375.397 232.32 376.517 232.507 378.01 232.6V234C376.75 233.907 375.163 233.86 373.25 233.86C371.337 233.813 369.4 233.79 367.44 233.79C365.153 233.79 363.03 233.813 361.07 233.86C359.157 233.86 357.593 233.907 356.38 234V232.6C357.873 232.507 358.993 232.32 359.74 232.04C360.487 231.76 360.977 231.2 361.21 230.36C361.49 229.52 361.63 228.26 361.63 226.58V191.86C361.63 190.133 361.49 188.873 361.21 188.08C360.977 187.24 360.463 186.68 359.67 186.4C358.923 186.073 357.827 185.887 356.38 185.84V184.44C357.593 184.487 359.157 184.533 361.07 184.58C363.03 184.627 365.153 184.65 367.44 184.65C369.4 184.65 371.337 184.627 373.25 184.58C375.163 184.533 376.75 184.487 378.01 184.44Z" fill="currentColor"/>
<path d="M409.311 183.46C412.391 183.46 414.911 183.927 416.871 184.86C418.878 185.747 420.651 186.797 422.191 188.01C423.125 188.71 423.825 188.803 424.291 188.29C424.805 187.73 425.155 186.447 425.341 184.44H426.951C426.858 186.26 426.788 188.477 426.741 191.09C426.695 193.657 426.671 197.087 426.671 201.38H425.061C424.828 199.233 424.525 197.413 424.151 195.92C423.778 194.38 423.265 193.027 422.611 191.86C421.958 190.693 421.025 189.643 419.811 188.71C418.645 187.543 417.291 186.68 415.751 186.12C414.211 185.56 412.601 185.28 410.921 185.28C408.401 185.28 406.255 185.957 404.481 187.31C402.708 188.617 401.261 190.413 400.141 192.7C399.068 194.987 398.275 197.577 397.761 200.47C397.248 203.317 396.991 206.28 396.991 209.36C396.991 212.487 397.248 215.497 397.761 218.39C398.321 221.237 399.161 223.78 400.281 226.02C401.448 228.26 402.941 230.033 404.761 231.34C406.581 232.647 408.728 233.3 411.201 233.3C412.741 233.3 414.281 233.02 415.821 232.46C417.408 231.853 418.762 230.99 419.882 229.87C421.701 228.47 422.938 226.743 423.591 224.69C424.245 222.59 424.735 219.813 425.061 216.36H426.671C426.671 220.793 426.695 224.387 426.741 227.14C426.788 229.847 426.858 232.133 426.951 234H425.341C425.155 231.993 424.828 230.733 424.361 230.22C423.941 229.707 423.218 229.777 422.191 230.43C420.465 231.643 418.621 232.717 416.661 233.65C414.748 234.537 412.275 234.98 409.241 234.98C404.295 234.98 399.955 233.977 396.221 231.97C392.535 229.963 389.665 227.07 387.611 223.29C385.558 219.51 384.531 214.96 384.531 209.64C384.531 204.413 385.581 199.84 387.681 195.92C389.828 192 392.745 188.943 396.431 186.75C400.165 184.557 404.458 183.46 409.311 183.46Z" fill="currentColor"/>
</svg>
