<svg width="15" height="14" viewBox="0 0 15 14" fill="none" xmlns="http://www.w3.org/2000/svg">
<path d="M0.954891 2.6H2.91089C3.59089 2.6 4.08689 2.76 4.39889 3.08C4.71089 3.392 4.86689 3.876 4.86689 4.532V5.048C4.86689 5.92 4.57889 6.472 4.00289 6.704V6.728C4.32289 6.824 4.54689 7.02 4.67489 7.316C4.81089 7.612 4.87889 8.008 4.87889 8.504V9.98C4.87889 10.22 4.88689 10.416 4.90289 10.568C4.91889 10.712 4.95889 10.856 5.02289 11H3.67889C3.63089 10.864 3.59889 10.736 3.58289 10.616C3.56689 10.496 3.55889 10.28 3.55889 9.968V8.432C3.55889 8.048 3.49489 7.78 3.36689 7.628C3.24689 7.476 3.03489 7.4 2.73089 7.4H2.27489V11H0.954891V2.6ZM2.75489 6.2C3.01889 6.2 3.21489 6.132 3.34289 5.996C3.47889 5.86 3.54689 5.632 3.54689 5.312V4.664C3.54689 4.36 3.49089 4.14 3.37889 4.004C3.27489 3.868 3.10689 3.8 2.87489 3.8H2.27489V6.2H2.75489ZM5.79473 2.6H9.39473V3.8H7.11473V6.02H8.92673V7.22H7.11473V9.8H9.39473V11H5.79473V2.6ZM10.1541 2.6H12.1701C12.8261 2.6 13.3181 2.776 13.6461 3.128C13.9741 3.48 14.1381 3.996 14.1381 4.676V8.924C14.1381 9.604 13.9741 10.12 13.6461 10.472C13.3181 10.824 12.8261 11 12.1701 11H10.1541V2.6ZM12.1461 9.8C12.3621 9.8 12.5261 9.736 12.6381 9.608C12.7581 9.48 12.8181 9.272 12.8181 8.984V4.616C12.8181 4.328 12.7581 4.12 12.6381 3.992C12.5261 3.864 12.3621 3.8 12.1461 3.8H11.4741V9.8H12.1461Z" fill="white"/>
</svg>
