<svg width="660" height="793" viewBox="0 0 660 793" fill="none" xmlns="http://www.w3.org/2000/svg">
<path d="M541.578 685.772C537.591 681.866 534.75 677.57 532.772 672.897C529.825 665.914 528.984 658.02 530.347 650.53C531.731 643.038 535.08 636.139 540.891 630.163L615.412 553.758C629.402 539.439 639.981 522.739 646.894 505.023C657.284 478.444 659.581 449.673 653.9 422.147C648.255 394.655 634.397 368.205 612.858 347.234C598.539 333.245 581.827 322.666 564.123 315.755C537.544 305.364 508.773 303.067 481.258 308.737C453.755 314.394 427.305 328.252 406.322 349.791L284.734 474.431C280.83 478.419 276.522 481.272 271.847 483.238C264.878 486.184 256.972 487.025 249.492 485.675C241.989 484.278 235.102 480.93 229.127 475.12C225.139 471.227 222.298 466.93 220.322 462.244C217.375 455.261 216.534 447.38 217.895 439.9C219.28 432.397 222.628 425.497 228.427 419.522L259.812 387.356C273.8 373.036 284.38 356.325 291.291 338.622C301.683 312.041 303.978 283.272 298.297 255.756C292.877 229.341 279.811 203.98 259.739 183.423L243.053 128.014C233.609 96.5812 208.412 72.3672 176.637 64.1547L113.606 47.8469C101.867 44.8172 89.3938 48.2969 80.9203 56.9594L57.7703 80.6953C49.2969 89.3703 46.1359 101.927 49.4641 113.583L67.3219 176.198C76.3281 207.773 101.156 232.342 132.827 241.028L184.661 255.23C184.661 255.23 189.561 265.408 191.525 270.083C194.472 277.078 195.312 284.958 193.962 292.438C192.566 299.942 189.217 306.841 183.406 312.817L152.031 344.984C138.055 359.316 127.475 376.014 120.553 393.719C110.173 420.298 107.878 449.069 113.558 476.595C119.192 504.088 133.061 530.55 154.589 551.52C168.908 565.509 185.619 576.089 203.323 583.002C229.905 593.392 258.673 595.677 286.202 590.008C313.705 584.352 340.144 570.505 361.125 548.966L482.725 424.312C486.631 420.336 490.927 417.484 495.6 415.519C502.583 412.572 510.477 411.719 517.944 413.081C525.447 414.478 532.358 417.827 538.322 423.625C542.322 427.531 545.162 431.827 547.127 436.5C550.084 443.483 550.925 451.377 549.564 458.856C548.18 466.359 544.819 473.247 539.02 479.234L464.486 555.627C450.497 569.945 439.93 586.669 433.006 604.373C422.627 630.942 420.331 659.711 426.012 687.239C431.647 714.742 445.516 741.18 467.044 762.164C531.388 824.922 649.994 779.761 659.367 733.961C625.627 736.364 572.809 722.127 541.578 685.772Z" fill="white"/>
<path d="M80.3453 66.3453C80.3453 66.3453 30.0484 18.8406 30.7938 0C19.5984 11.1969 31.6937 31.6938 31.6937 31.6938C31.6937 31.6938 11.1969 19.5984 0 30.7938C18.8531 30.0469 66.3562 80.3344 66.3562 80.3344L80.3453 66.3453Z" fill="white"/>
</svg>
