<svg width="922" height="500" viewBox="0 0 922 500" fill="none" xmlns="http://www.w3.org/2000/svg">
<path d="M84.7927 447.045C77.64 453.868 80.005 464.186 82.7416 473.49C84.5761 480.016 83.3956 490.111 88.3644 495.922C88.3466 496.765 104.283 499.676 109.482 495.282C111.511 491.367 104.523 476.382 104.513 473.833M53.1627 115.172C54.9271 111.146 63.3722 109.664 72.1438 110.294C76.402 112.358 79.937 115.78 85.4436 117.49C83.9367 117.966 115.599 124.253 117.2 113.991C116.882 108.564 108.116 109.707 110.668 93.1194M53.1627 115.172C40.6792 122.513 34.5059 137.161 24.9787 147.747C-12.4383 186.635 -2.24035 185.738 46.0194 228.113C49.8129 231.096 54.1893 231.829 59.474 229.046M53.1627 115.172C53.9371 113.446 55.2787 112.447 56.8526 111.996C70.572 109.165 74.2682 110.354 80.7156 102.61C77.0717 103.639 73.881 100.984 71.0722 99.6659C68.23 98.3626 64.5003 99.2297 62.7087 97.6723C78.0983 89.8906 66.3128 79.0506 67.1197 69.6456C67.0171 62.9412 71.1444 57.0003 73.6204 51.7979C76.5433 42.5738 79.0287 32.2903 88.7871 30.8657C93.0631 27.6777 96.5426 24.9991 101.566 26.6663C112.113 29.3094 119.998 35.9751 123.192 45.5631C125.211 49.4947 129.302 50.9162 130.303 54.6585C128.133 72.41 132.678 72.0889 132.004 79.7566C131.322 84.8963 129.078 87.371 133.191 90.2201C136.339 95.3221 127.808 93.8955 128.324 94.2908C127.919 97.1839 134.951 96.6327 134.92 99.7621C134.296 105.189 126.29 101.577 125.527 102.609C133.057 111.107 120.544 106.459 118.15 105.616C114.076 102.703 113.308 95.7248 111.475 92.0965C104.409 116.748 127.42 109.724 138.821 117.187C144.971 120.63 144.101 133.132 144.322 136.811C141.186 184.626 156.957 201.129 163.173 244.734C165.531 251.25 166.534 254.468 165.881 260.203C166.925 267.958 170.475 275.588 167.698 282.564C169.902 308.927 178.762 342.628 181.351 369.248C180.797 370.548 179.188 371.044 178 371.248C152.539 369.565 167.794 343.813 139.855 369.893C136.624 372.468 132.276 371.872 129.424 369.376C131.373 395.942 123.898 420.998 121.684 446.324C122.233 487.841 141.984 503.861 109.299 495.554C104.31 498.888 96.1617 497.154 91.395 497.025C82.932 497.32 83.5505 469.698 80.2133 463.475C78.9648 448.049 85.6341 448.894 84.6755 445.898C78.1507 428.238 73.7062 409.973 70.2382 392.609C66.408 391.888 64.0922 389.069 60.9192 389.048C56.6935 389.545 54.611 394.479 51.3648 395.975C50.2786 396.572 49.0542 396.775 48.0098 396.748C29.1825 392.705 33.9304 394.06 21.5201 401.375C15.5457 404.428 7.67825 394.717 7.20105 391.189C7.71278 366.024 29.149 279.285 59.474 229.046M115.452 110.448C115.816 112.143 134.355 111.884 135.267 117.021C133.015 130.293 137.081 145.902 139.904 160.048C137.378 173.157 132.84 185.663 132.788 200.218C132.581 201.311 132.651 203.358 131.518 204.201C114.254 206.635 96.4076 206.102 78.5546 207.066M73.004 207.322C75.0499 188.431 61.4624 166.082 55.5267 147.967M73.004 207.322C66.1349 209.402 58.9435 219.24 50.5569 216.126C40.316 206.005 28.1213 195.633 22.2056 181.31C29.4985 168.583 41.9255 156.189 55.1667 148.056C61.8475 165.554 74.5225 187.453 73.004 207.322ZM111.472 92.0944C113.305 95.7227 114.073 102.701 118.147 105.614C120.541 106.457 133.053 111.105 125.524 102.607C126.306 101.569 134.236 105.188 134.919 99.783C135.642 97.2738 127.086 96.5563 128.438 94.2584C128.373 94.1883 138.76 94.6402 131.294 88.533C130.211 86.9317 130.971 85.2289 131.251 83.5408C134.294 73.1558 128.019 74.756 130.241 54.4368C129.751 52.9191 129.012 51.9443 127.654 50.708C119.719 44.7504 122.059 33.5454 107.408 28.982C98.7894 25.0692 96.4118 24.7805 89.0959 30.7538C79.1239 32.1888 76.5642 42.3647 73.6183 51.7947C71.2889 56.7629 67.3373 62.3576 67.1531 68.7514C65.8461 79.0506 78.3997 89.1281 62.7077 97.848C65.4013 99.1638 69.5946 98.4244 72.6524 100.416C78.564 104.936 88.7296 103.263 85.5054 91.8319M70.6955 110.071C74.2274 108.36 77.5353 106.074 80.7135 102.608M134.904 115.834C150.471 116.971 141.283 152.795 144.859 167.508C144.221 182.944 189.675 300.294 154.793 298.011C152.713 296.814 152.83 294.509 152.796 292.116C154.916 280.567 152.385 269.592 155.843 256.223C151.089 239.131 138.138 220.604 132.017 203.672M59.474 229.046C28.9784 279.165 6.09177 371.811 7.39883 392.08C18.7354 410.032 19.9368 398.933 34.799 394.39C43.4429 394.127 47.6257 402.001 58.663 389.754C59.4709 389.261 60.5676 388.902 61.6225 389.096C64.7839 389.311 68.1756 393.588 71.8812 392.321C76.0566 391.428 75.8432 372.435 82.9791 373.734C87.4748 375.214 91.2254 380.224 96.6996 380.996C105.753 382.64 110.659 360.863 120.721 362.805C125.534 364.636 128.881 371.23 134.954 371.649C142.975 372.57 152.468 351.2 160.628 360.963C163.863 364.659 168.373 371.022 174.615 371.276C176.623 371.463 180.235 371.578 181.372 369.198C178.078 343.43 171.632 310.125 167.241 284.587M70.4391 392.622C73.3892 410.548 78.4939 428.306 84.7215 446.195C83.2826 459.336 83.1748 475.723 90.1287 488.713C92.3787 491.033 101.64 491.038 105.248 487.379C106.08 472.476 103.119 457.696 97.0701 442.398C94.4225 424.835 94.3482 397.806 93.714 380.136M105.887 375.212C104.672 396.712 109.897 420.266 108.421 441.778C104.709 449.539 107.665 471.456 108.121 480.73C110.09 487.041 120.268 490.326 125.143 484.923C125.756 483.745 125.684 482.729 125.502 481.257C122.534 470.539 122.967 459.535 121.774 447.641C123.279 421.871 131.585 396.38 129.423 369.374M105.887 375.212C104.571 421.988 114.697 434.559 105.103 446.223C102.729 454.322 106.157 462.562 104.489 471.635M105.887 375.212C102.247 379.664 98.7151 382.5 93.7129 380.136C94.2425 397.405 94.6004 424.096 96.8336 441.34C100.011 451.84 104.755 461.7 104.489 471.635M107.599 444.156C101.133 446.033 106.345 459.454 104.489 471.635M123.844 472.894C124.401 472.66 130.256 490.124 127.338 495.796C124.08 498.209 115.895 498.375 109.342 495.495M392.075 82.5409C390.804 87.4578 390.628 92.9343 391.867 98.8343M367.667 79.0579C368.877 85.4695 366.158 93.1351 359.273 95.7049M342.503 96.8544C356.523 82.362 349.191 57.3256 361.963 40.9966C370.55 28.7948 390.792 26.1601 401.251 40.8533C410.489 58.222 415.533 79.128 426.806 96.5689C426.671 98.4045 422.448 93.1048 420.811 94.6308C417.083 117.197 410.666 91.5003 405.792 82.3882C402.598 78.7243 407.969 93.2177 401.847 102.361M449.684 456.924C445.209 455.903 453.647 491.119 454.796 494.787C453.767 496.639 476.286 500.663 480.198 494.097C480.221 484.187 469.997 471.851 465.665 456.51C461.712 454.136 454.778 454.494 449.684 456.924ZM449.684 456.924C446.076 421.457 445.718 430.191 432.28 391.098C422.907 350.87 407.9 308.609 396.73 267.227M449.684 456.924C447.352 458.358 447.747 460.777 448.259 463.581C450.04 465.753 452.386 495.12 456.113 495.993C457.491 497.435 479.716 500.229 480.341 492.894C473.207 468.793 469.774 475.213 462.274 442.158C456.297 395.055 459.852 379.406 444.564 337.372C442.651 319.245 440.281 275.472 438.42 256.948M449.684 456.924C446.076 421.457 445.718 430.191 432.283 391.097C422.91 350.869 407.903 308.608 396.733 267.226C390.917 271.486 391.806 252.697 388.79 247.499C387.269 250.031 389.922 270.766 386.994 270.259C375.993 261.57 346.934 341.424 342.793 347.695C314.405 394.505 338.451 363.2 299.956 437.181C295.832 445.216 299.503 450.646 296.097 456.652C296.453 457.485 296.472 458.493 296.422 459.245C288.641 486.132 294.246 483.746 292.35 495.205C290.353 499.529 272.649 496.925 272.666 497.159C270.693 496.579 269.147 496.556 268.396 494.843C267.509 481.112 273.628 467.474 278.789 456.049C278.637 450.551 282.486 445.853 284.396 441.721C291.443 423.72 291.646 402.84 297.165 385.171C312.59 336.778 318.786 354.296 331.863 269.201C332.519 264.675 334.78 259.942 335.301 256.771C332.86 257.435 331.098 257.891 329.75 258.244C332.816 263.298 317.233 266.306 315.627 263.349C314.474 261.177 291.084 276.476 289.713 270.742C289.172 269.688 289.511 268.351 290.387 267.634C291.077 267.018 310.453 255.362 310.818 255.073C308.656 249.427 310.464 243.011 311.19 238.272C310.291 235.402 312.279 212.512 312.509 212.306C314.895 180.835 321.47 149.731 324.235 119.018C330.263 85.2195 342.234 105.571 347.695 89.5036C354.078 74.8962 352.078 58.495 359.142 45.2389C367.918 28.9517 386.261 26.9173 397.489 36.6654C418.327 66.2579 401.777 53.8552 426.781 96.8335C416.178 90.7023 422.922 98.4202 418.505 102.867C412.537 107.54 407.131 80.2764 405.077 81.6884C404.193 88.7987 406.164 96.5532 401.848 102.362C428.252 107.098 453.569 114.778 479.42 111.772C492.365 106.408 507.348 99.8113 516.993 90.9125C517.579 90.5998 518.199 90.5171 518.772 90.7368C525.608 86.5227 520.409 74.9359 524.398 69.3235C533.059 61.2698 540.875 61.1056 540.876 72.1579C540.168 75.3668 536.342 76.5383 535.14 78.8864C533.762 87.9661 534.747 96.2771 525.164 98.9714C525.675 100.133 526.199 101.162 525.725 102.269C515.671 108.65 495.801 122.334 485.308 128.362C427.1 139.543 405.167 106.575 405.618 165.968C406.398 169.097 405.15 171.262 406.729 173.341C434.068 210.154 424.976 219.861 443.92 255.051C443.196 256.888 439.618 256.741 438.42 256.948M465.33 456.22C458.465 426.763 459.604 394.483 453.041 364.176C440.523 335.002 441.843 288.844 438.42 256.948M279.089 455.854C278.354 456.293 277.796 456.93 277.431 457.814C274.27 469.565 266.237 482.206 268.707 495.465C268.688 497.35 287.176 499.416 291.98 495.838C293.009 494.159 292.908 492.706 292.842 490.494C286.422 471.529 312.129 447.435 279.089 455.854ZM279.089 455.854C278.945 453.6 279.105 451.964 279.784 450.174C285.331 441.751 288.506 430.482 289.498 423.162C298.775 353.007 314.352 373.056 332.553 269.781M296.079 456.623C296.626 455.544 297.737 453.193 297.73 451.472C295.831 437.574 312.29 414.72 317.309 401.634C324.133 389.152 325.762 379.101 331.59 365.574C349.725 338.362 362.553 299.008 379.866 270.394M335.298 256.773C331.721 273.382 325.586 269.795 349.415 268.151C400.517 269.763 384.998 279.26 388.912 247.731C398.619 282.451 380.892 263.589 443.395 255.791C444.003 255.354 444.102 254.519 443.856 253.82C425.19 222.46 434.005 209.908 407.575 174.333C404.643 172.155 406.946 168.019 405.053 164.853C402.44 161.948 366.87 160.894 346.915 172.536C343.488 175.876 348.5 178.797 349.181 182.807C346.547 190.516 347.509 195.581 344.083 209.108C344.97 220.622 342.887 231.968 338.702 243.702M519.234 90.9627C524.221 85.8858 521.735 78.0622 523.395 71.1978C524.279 67.8173 532.644 62.3701 537.74 63.8313C542.294 69.517 542.475 72.774 535.431 78.4252C532.483 82.5409 538.361 94.2134 525.162 98.9714M310.815 255.075C296.382 264.696 285.121 267.916 290.976 272.037C293.146 273.468 313.281 263.26 315.143 262.953M326.448 234.823C328.461 236.531 332.221 239.058 332.246 242.549M332.246 242.549C334.614 241.831 337.047 241.975 338.702 243.703C342.9 231.981 344.951 220.606 344.083 209.109C347.642 195.209 346.463 190.246 349.19 182.992C348.758 179.027 343.841 176.372 346.526 172.947M332.246 242.549C332.384 238.763 328.199 237.232 326.597 234.41C325.82 227.952 323.959 221.26 329.295 213.289C330.74 190.365 336.665 166.763 340.264 143.06M311.323 238.407C307.672 248.086 310.486 273.705 329.085 261.478C329.627 261.036 330.287 260.379 330.293 259.585C330.606 257.002 322.451 256.135 325.579 245.954C339.237 233.538 350.631 255.873 329.747 258.246M340.264 143.06C340.898 152.602 343.039 162.844 346.526 172.947M340.264 143.06C340.898 152.601 343.039 162.844 346.526 172.947M339.992 124.519C342.882 149.612 330.572 183.639 329.266 213.369C324.753 219.757 325.476 226.007 326.466 234.793C325.513 234.898 313.638 239.48 311.189 238.279C311.21 208.834 315.814 178.81 321.153 148.888C323.892 133.33 320.393 104.571 336.128 97.6242C343.321 96.8314 351.421 95.729 359.349 95.7321C367.124 102.863 381.391 108.67 390.591 99.6471C390.986 99.2245 391.613 98.6911 392.28 98.8406C400.808 103.781 409.904 102.62 420.099 105.572C437.539 112.098 458.096 111.866 477.518 112.25C491.985 107.284 505.053 100.475 517.884 90.6228C520.811 90.7451 524.769 96.9004 525.908 101.663C517.303 108.564 495.369 121.993 485.655 128.224C432.983 142.229 406.315 101.998 405.45 165.497M734.892 194.378C736.376 219.314 714.196 243.002 711.266 275.784C711.691 274.434 708.208 292.267 712.484 295.995C720.241 294.257 729.313 297.916 737.359 294.1C743.421 291.005 750.119 286.388 757.923 286.151C766.115 284.703 773.828 288.458 781.51 291.764C790.23 292.396 799.308 289.171 808.922 289.71C817.248 290.257 831.147 292.82 838.489 284.939C838.794 284.131 838.605 283.291 838.189 282.496C825.981 267.159 820.469 246.166 810.922 227.931C808.655 220.855 797.282 188.626 792.623 186.912C784.798 187.317 733.358 190.09 734.892 194.378ZM734.892 194.378C732.769 189.76 730.524 185.604 728.645 182.333M770.249 111.869C785.257 130.388 774.254 117.485 764.275 136.834C763.769 137.12 763.233 136.907 762.744 136.589C752.384 124.841 741.645 130.828 732.854 108.71C732.04 107.222 730.694 105.896 728.991 105.27C719.818 101.063 737.543 116.564 717.748 148.89C718.093 149.247 727.305 187.304 728.858 182.15C732.152 177.325 735.383 170.779 742.21 169.211C758.03 166.289 777.727 161.592 793.017 170.379C792.133 152.563 799.781 134.217 782.13 115.755M794.688 188.292C794.375 184.774 793.19 174.45 792.742 170.558M733.213 109.377C756.843 102.529 732.221 71.3745 750.505 50.9925C755.317 47.5943 754.268 59.9363 773.647 59.725C774.844 59.8976 776.288 60.2187 777.363 61.0251C781.579 61.5878 783.417 99.6868 763.131 96.3524C758.027 96.0731 752.374 94.8535 748.508 90.1521M771.78 95.0188C770.747 98.5676 763.95 112.72 776.548 116.347C780.126 118.097 788.752 113.433 788.241 107.908C787.026 102.984 788.098 97.4077 788.575 91.8685C785.137 82.9687 785.544 83.204 787.834 69.0965C787.543 66.1616 782.663 58.4897 778.71 48.8871C749.109 20.2506 731.926 53.1921 729.626 85.1944C729.597 91.585 725.536 97.2268 719.59 100.618M725.998 104.954C713.659 95.7562 695.366 93.5074 684.528 80.3235C669.916 69.9793 658.344 56.5861 644.085 44.7755C630.295 34.3842 615.529 22.5725 610.363 4.45182C608.562 2.58484 606.091 2.24072 603.319 2.0012C593.7 -0.313436 585.888 14.2438 593.576 20.7422C617.891 28.7111 631.664 61.0167 651.668 75.6367C711.672 132.18 701.168 104.448 717.691 149.015M598.469 22.8215C596.714 24.245 594.498 29.3732 591.162 30.6565C583.025 30.1095 587.545 24.0264 591.609 18.8856M793.092 137.452C794.059 123.143 833.695 101.364 843.265 86.7821C864.418 71.0053 859.048 78.3728 884.819 54.9817C894.635 52.1253 899.517 57.9521 908.204 45.0108C906.671 44.8351 919.941 40.301 919.995 37.1256C913.447 27.6767 863.863 52.6179 845.236 61.2981C829.608 71.5691 823.712 88.9514 792.823 99.5393C790.964 100.561 790.085 101.208 787.701 103.373M732.851 422.009C740.667 402.903 737.233 380.138 745.478 359.982C755.552 340.067 768.924 352.385 738.075 293.752M746.675 429.276C748.912 408.236 766.787 384.958 775.062 359.092C792.287 340.268 783.893 316.133 775.892 289.308M773.727 448.25C743.909 449.791 758.165 438.302 753.201 490.631C753.268 492.241 753.329 494.596 754.781 495.817C759.15 498.37 764.641 497.65 771.574 497.058C781.438 496.085 772.526 477.022 771.779 467.771C771.489 461.908 776.524 454.521 773.727 448.25ZM773.727 448.25C779.158 426.344 790.782 405.263 796.324 382.994C799.21 353.347 806.558 319.541 812.904 290.032M758.665 448.092C765.06 432.679 765.76 394.806 768.031 377.964M758.665 448.092C750.385 447.819 756.161 451.341 753.466 493.347C753.205 498.785 769.06 498.887 774.926 495.496C778.12 490.395 774.239 479.352 772.054 470.625C771.811 444.1 784.331 418.414 793.505 392.905C796.229 390.535 809.389 284.445 814.777 290.225C822.291 290.825 832.078 291.384 838.452 285.027C838.953 280.642 834.435 278.715 832.112 274.166C827.02 264.409 790.84 185.175 793.152 174.168C793.003 162.516 792.37 162.772 794.176 148.742C795.1 143.492 788.407 133.183 803.043 122.284C818.819 110.004 832.118 98.8877 846.114 84.3733C859.415 75.4777 870.39 69.7398 882.427 56.2776C887.175 52.9076 893.004 54.8447 898.943 53.2821C907.142 51.5981 901.744 46.9019 914.786 41.3595C916.113 40.4265 918.856 39.89 920.02 37.7354C918.432 29.6681 889.4 41.2758 878.866 45.469C836.646 67.4105 862.554 45.5777 812.931 90.0496C806.167 95.4508 794.796 96.5532 787.703 103.374C786.483 97.688 790.934 94.3609 786.439 85.7414C785.85 84.0596 785.712 82.3003 785.977 80.2189C786.953 72.0512 790.807 70.4123 783.107 59.316C779.279 49.1224 780.904 48.1978 762.527 38.0157C737.152 34.7158 731.037 68.3162 729.055 89.285C728.146 92.8255 726.039 95.6683 722.901 98.2685C706.756 107.28 658.063 56.3288 645.478 45.879C629.578 32.8864 617.915 26.5722 610.276 4.35559C605.586 0.459509 594.044 0.676014 591.833 8.33849C590.893 11.2619 589.814 15.6077 591.578 18.8375C590.84 21.0946 583.837 26.2647 587.862 29.7915C589.364 31.1795 591.993 31.0393 593.306 29.3209C600.875 12.4228 616.012 37.7458 622.606 44.9052C635.828 61.1684 651.906 76.4337 668.463 90.2954C721.066 136.761 705.152 110.798 726.898 181.062C727.136 181.634 727.78 183.044 728.645 182.334C751.386 212.407 703.75 240.49 711.843 295.398C712.143 295.829 712.654 296.191 713.221 296.215C720.865 293.667 729.839 298.338 737.742 293.916C745.56 307.389 755.389 325.142 757.547 342.217C733.981 370.592 745.162 380.753 732.852 422.009C730.966 420.484 724.355 427.343 721.234 433.832C719.267 443.601 716.735 454.074 713.696 464.34C713.119 468.775 727.909 481.748 735.89 478.567C744.001 465.464 730.516 468.66 749.797 430.92C739.234 424.921 764.089 389.096 768.031 377.964M758.665 448.092C765.523 430.025 765.437 396.937 768.031 377.964M608.806 10.8037C610.859 6.81875 606.417 1.83177 601.946 4.19557C600.381 5.24882 591.662 14.226 601.338 17.2184C605.295 18.1085 607.237 14.0263 608.9 10.5977M57.2973 148.176C62.197 155.794 71.2187 150.81 70.3209 141.499C70.9508 138.771 63.6882 106.855 51.864 115.969C42.6466 122.943 34.9319 132.682 29.06 143.52C24.7067 148.08 -2.33976 174.487 2.27838 184.633C3.90462 189.278 5.29121 191.082 10.1814 195.445C67.4776 249.568 37.9939 227.464 85.6257 221.689C89.8378 218.712 87.298 213.341 84.2988 209.898C73.2709 200.462 65.5478 215.248 53.5499 216.965C49.7271 217.482 25.8913 193.608 22.2307 180.769C28.6038 170.074 50.0619 147.223 57.2973 148.176ZM115.2 85.0155C106.886 107.04 86.1395 106.243 80.7878 79.0694C75.7103 81.3161 72.0821 69.1655 74.128 63.8752C74.3645 63.2874 75.1378 62.6808 75.5951 63.4893C76.0043 64.7413 77.5709 70.8474 79.5247 66.8227C80.8276 62.0114 78.2553 54.9325 84.2339 51.4475C88.4659 49.4257 86.8103 53.8856 89.4517 56.3843C97.722 61.7719 106.312 66.125 118.405 61.775C120.581 69.4542 110.309 70.0284 115.2 85.0155ZM397.76 61.0795C394.827 57.881 391.671 53.7684 387.658 50.754C380.763 49.592 376.836 56.2326 369.533 44.1218C369.119 43.5842 368.412 42.8374 367.604 43.0225C361.683 45.5537 363.927 59.7187 361.928 73.1129C364.104 75.69 364.452 72.1841 366.892 77.8488C373.851 88.8792 393.043 89.9136 396.669 73.6505C397.575 72.5951 400.167 74.0992 401.191 71.6214C402.453 65.9964 397.459 70.4897 397.76 61.0795ZM738.12 474.126C737.201 486.267 716.224 473.498 713.812 465.163C713.526 463.641 713.73 462.261 714.3 460.598C720.756 449.462 716.376 429.845 731.985 421.745C737.58 424.41 732.109 424.751 749.088 430.024C752.53 437.3 741.234 428.705 738.12 474.126Z" stroke="#823549" stroke-width="3.5" stroke-miterlimit="10" stroke-linecap="round" stroke-linejoin="round"/>
</svg>
