<svg width="25" height="13" viewBox="0 0 25 13" fill="none" xmlns="http://www.w3.org/2000/svg">
<path d="M3 0.403064C2.17333 0.403064 1.54667 0.624406 1.12 1.06709C0.706667 1.50977 0.406667 2.26372 0.22 3.32893C0.22 3.3566 0.18 3.37043 0.1 3.37043C0.0333333 3.37043 0.27809 3.32893 0 3.32893C0.0533333 2.83091 0.113333 2.18072 0.18 1.37835C0.246667 0.575988 0.295855 0.486544 0.295855 0.0853617C0.295855 0.0853617 0.354162 0.029509 0.420829 0.029509C0.500829 0.029509 0.546875 0.0295508 0.72171 0.0295495C1.04688 0.0295508 0.86 0.0295509 1.58 0.0295509C2.72667 0.071052 4.06667 0.0918025 5.6 0.0918025C6.38667 0.0918025 7.21243 0.132902 8.09243 0.105235L9.46578 0.0967205C9.94578 0.0967205 10.2733 0.223225 10.5 0.154055C10.74 0.0848861 10.9133 0.755828 10.98 0.54832C10.9933 0.492984 11.0333 0.465317 11.1 0.465317C11.1667 0.465317 11.2 0.492984 11.2 0.54832C11.16 0.949502 11.12 0.520652 11.08 1.33685C11.04 2.15305 11.02 2.81708 11.02 3.32893C11.02 3.3566 10.98 3.37043 10.9 3.37043C10.82 3.37043 10.78 3.3566 10.78 3.32893C10.74 2.24989 10.5267 1.49594 10.14 1.06709C9.75333 0.624406 9.11333 0.403064 8.22 0.403064C7.62 0.403064 7.19333 0.430732 6.94 0.486068C6.68667 0.541403 6.51333 0.658991 6.42 0.838831C6.32667 1.01867 6.28 1.32302 6.28 1.75187L6.22 10.8297C6.22 11.2586 6.26667 11.5698 6.36 11.7635C6.45333 11.9572 6.63333 12.0886 6.9 12.1578C7.16667 12.2269 7.58667 12.2615 8.16 12.2615C8.2 12.2615 8.22 12.303 8.22 12.386C8.22 12.469 8.2 12.5105 8.16 12.5105C7.72 12.5105 7.36667 12.5036 7.1 12.4898L5.54 12.469L4.04 12.4898C3.77333 12.5036 3.40667 12.5105 2.94 12.5105C2.91333 12.5105 2.9 12.469 2.9 12.386C2.9 12.303 2.91333 12.2615 2.94 12.2615C3.51333 12.2615 3.93333 12.2269 4.2 12.1578C4.46667 12.0886 4.64667 11.9572 4.74 11.7635C4.84667 11.556 4.9 11.2447 4.9 10.8297L4.96 1.71037C4.96 1.28152 4.91333 0.984087 4.82 0.818081C4.72667 0.638241 4.55333 0.527569 4.3 0.486068C4.04667 0.430732 3.61333 0.403064 3 0.403064Z" fill="white"/>
<path d="M7.96805 0.391948C7.14138 0.391948 6.51471 0.605281 6.08805 1.03195C5.67471 1.45861 5.37471 2.18528 5.18805 3.21195C5.18805 3.23862 5.14805 3.25195 5.06805 3.25195C5.00138 3.25195 4.96805 3.23862 4.96805 3.21195C5.02138 2.73195 5.08138 2.10528 5.14805 1.33195C5.21471 0.558615 5.24805 0.978615 5.24805 0.591949C5.24805 0.525282 5.28138 0.491949 5.34805 0.491949C5.42805 0.491949 5.46805 0.525282 5.46805 0.591949C5.46805 0.885282 5.82875 0.0853617 6.54875 0.0853617C7.69542 0.125361 9.03471 0.0919481 10.568 0.0919481C11.3547 0.0919481 12.188 0.0786149 13.068 0.0519486L14.4219 0.0828023C14.9019 0.0828023 15.2414 0.156625 15.468 0.0899579C15.708 0.0232913 15.8814 0.731948 15.948 0.531948C15.9614 0.478615 16.0014 0.451948 16.068 0.451948C16.1347 0.451948 16.168 0.478615 16.168 0.531948C16.128 0.918615 16.088 0.505281 16.048 1.29195C16.008 2.07861 15.988 2.71862 15.988 3.21195C15.988 3.23862 15.948 3.25195 15.868 3.25195C15.788 3.25195 15.748 3.23862 15.748 3.21195C15.708 2.17195 15.4947 1.44528 15.108 1.03195C14.7214 0.605281 14.0814 0.391948 13.188 0.391948C12.588 0.391948 12.1614 0.418615 11.908 0.471948C11.6547 0.525281 11.4814 0.638615 11.388 0.811949C11.2947 0.985282 11.248 1.27862 11.248 1.69195V10.9119C11.248 11.3253 11.2947 11.6253 11.388 11.8119C11.4814 11.9986 11.6614 12.1253 11.928 12.1919C12.1947 12.2586 12.6147 12.2919 13.188 12.2919C13.228 12.2919 13.248 12.3319 13.248 12.4119C13.248 12.4919 13.228 12.5319 13.188 12.5319C12.748 12.5319 12.3947 12.5253 12.128 12.5119L10.568 12.4919L9.06805 12.5119C8.80138 12.5253 8.43471 12.5319 7.96805 12.5319C7.94138 12.5319 7.92805 12.4919 7.92805 12.4119C7.92805 12.3319 7.94138 12.2919 7.96805 12.2919C8.54138 12.2919 8.96138 12.2586 9.22805 12.1919C9.49471 12.1253 9.67471 11.9986 9.76805 11.8119C9.87471 11.6119 9.92805 11.3119 9.92805 10.9119V1.65195C9.92805 1.23862 9.88138 0.951948 9.78805 0.791949C9.69471 0.618615 9.52138 0.511948 9.26805 0.471948C9.01471 0.418615 8.58138 0.391948 7.96805 0.391948Z" fill="white"/>
<path d="M16.0282 10.8001C16.0282 11.2267 16.0815 11.5401 16.1882 11.7401C16.3082 11.9267 16.5282 12.0601 16.8482 12.1401C17.1815 12.2201 17.7015 12.2601 18.4082 12.2601C18.4482 12.2601 18.4682 12.3001 18.4682 12.3801C18.4682 12.4601 18.4482 12.5001 18.4082 12.5001C17.8615 12.5001 17.4349 12.4934 17.1282 12.4801L15.3882 12.4601L14.0482 12.4801C13.7949 12.4934 13.4549 12.5001 13.0282 12.5001C13.0015 12.5001 12.9882 12.4601 12.9882 12.3801C12.9882 12.3001 13.0015 12.2601 13.0282 12.2601C13.5349 12.2601 13.9015 12.2267 14.1282 12.1601C14.3682 12.0934 14.5282 11.9667 14.6082 11.7801C14.6882 11.5801 14.7282 11.2801 14.7282 10.8801V1.62008C14.7282 1.22009 14.6882 0.926752 14.6082 0.740085C14.5282 0.553418 14.3682 0.426751 14.1282 0.360084C13.9015 0.280084 13.5349 0.240084 13.0282 0.240084C13.0015 0.240084 12.9882 0.200084 12.9882 0.120085C12.9882 0.0400849 13.0015 0.100148 13.0282 0.100148L14.0319 0.0668584C14.5919 0.0935247 15.0349 0.0600842 15.3682 0.0600842C15.7015 0.0600842 16.0867 0.0967441 16.5 0.0567447C16.66 0.0567447 16.9033 0.0533452 17.25 0.0400112C17.5967 0.0133449 17.9324 0.320084 18.1857 0.320084C18 0.403369 20.0325 0.968745 20.6475 1.7C21.6238 2.86097 21.5 3.47906 21.5 3.97906C21.5 4.47906 21.3726 5.0826 20.6475 5.80768C19.9224 6.53276 18.5937 6.8303 17.5 7.47906C16.4063 8.12783 16.5 7.97906 15.748 9.05134C14.9961 10.1236 15.7933 10.4867 15.54 10.4201C15.5 10.4201 15.2194 8.28196 15.2638 7.64493C14.6135 8.58493 15.6344 6.97906 16 6.97906C16.3656 6.97906 17.1282 6.77959 17.1282 6.77959C18 6.47906 17.3517 6.72805 18 6.47906C18.8517 6.22805 19 5.97906 19.5 5.47906C20 4.97906 19.96 4.53806 20 3.97906C20.0465 3.32893 19.7583 2.25889 19.1641 1.69195C18.5982 1.15195 17.1684 0.531948 16.2751 0.531948C15.7951 0.531948 16.8415 0.266751 16.6282 0.320084C16.4149 0.373418 16.2615 0.500085 16.1682 0.700084C16.0749 0.886751 16.0282 1.20675 16.0282 1.66008V6.23008V10.8001Z" fill="white"/>
<path d="M18.2238 12.62C17.8372 12.62 17.3905 12.6 16.8838 12.56C16.6972 12.5467 16.4572 12.5333 16.1638 12.52C15.8838 12.5067 15.5705 12.5 15.2238 12.5L13.8638 12.52C13.6238 12.5333 13.2905 12.54 12.8638 12.54C12.8372 12.54 12.8238 12.5 12.8238 12.42C12.8238 12.34 12.8372 12.3 12.8638 12.3C13.3705 12.3 13.7372 12.2667 13.9638 12.2C14.2038 12.1333 14.3638 12.0067 14.4438 11.82C14.5372 11.62 14.5838 11.32 14.5838 10.92V1.66C14.5838 1.26 14.5438 0.966668 14.4638 0.780001C14.3838 0.593333 14.2238 0.466666 13.9838 0.4C13.7572 0.32 13.3905 0.28 12.8838 0.28C12.8572 0.28 12.8438 0.24 12.8438 0.16C12.8438 0.0800006 12.8572 0.0573557 12.8838 0.0573557L13.8838 0.0600004C14.4438 0.0866667 14.8905 0.0999999 15.2238 0.0999999C15.7305 0.0999999 16.2305 0.0800001 16.7238 0.0400006C17.3105 0.0133335 17.7172 0 17.9438 0C19.3305 0 20.5572 0.266667 21.6238 0.800001C22.6905 1.33333 23.5172 2.06 24.1038 2.98C24.7038 3.9 25.0038 4.93333 25.0038 6.08C25.0038 7.37333 24.6972 8.52 24.0838 9.52C23.4838 10.5067 22.6638 11.2733 21.6238 11.82C20.5838 12.3533 19.4505 12.62 18.2238 12.62ZM18.0238 12.32C19.0905 12.32 20.0372 12.1 20.8638 11.66C21.6905 11.2067 22.3305 10.5467 22.7838 9.68C23.2505 8.8 23.4838 7.74667 23.4838 6.52C23.4838 5.36 23.2638 4.30667 22.8238 3.36C22.3838 2.41333 21.7572 1.66667 20.9438 1.12C20.1305 0.573333 18.2749 0.373279 17.2082 0.373279C16.6349 0.373279 16.5951 0.465282 16.2751 0.531948C15.9684 0.598615 16.2505 0.6 16.1038 0.800001C15.9572 1 15.8838 1.3 15.8838 1.7V10.7C15.8838 11.1 15.9372 11.4133 16.0438 11.64C16.1638 11.8667 16.3772 12.04 16.6838 12.16C17.0038 12.2667 17.4505 12.32 18.0238 12.32Z" fill="white"/>
</svg>
